<svg xmlns="http://www.w3.org/2000/svg" width="24" height="24" viewBox="0 0 24 24"><defs><style>.a{fill:#002f34;}</style></defs><g transform="translate(-0.001 0)"><path class="a" d="M18.772,2.093A12.03,12.03,0,0,0,5.228,2.082a2.208,2.208,0,0,0-2.66.346l-.139.139a2.208,2.208,0,0,0-.346,2.66,12.03,12.03,0,0,0,.011,13.544,2.209,2.209,0,0,0,.335,2.681l.139.139a2.209,2.209,0,0,0,2.681.335,12.027,12.027,0,0,0,13.507-.009,2.21,2.21,0,0,0,2.7-.326l.139-.139a2.209,2.209,0,0,0,.326-2.7,12.019,12.019,0,0,0,.009-13.507,2.21,2.21,0,0,0-.334-2.681l-.139-.139A2.21,2.21,0,0,0,18.772,2.093Zm1.6,1.417.139.139a.683.683,0,0,1,0,.961L16.868,8.251l-.005,0a.675.675,0,0,1-.95-.008l-.139-.139a.681.681,0,0,1-.014-.946l3.65-3.653A.681.681,0,0,1,20.372,3.51ZM17.051,14.151a2.191,2.191,0,0,0-2.221.54l-.138.138a2.192,2.192,0,0,0-.54,2.221,5.39,5.39,0,0,1-.834.286,5.57,5.57,0,0,1-3.456-.277,2.216,2.216,0,0,0-.532-2.229l-.139-.138a2.212,2.212,0,0,0-2.251-.526,5.493,5.493,0,0,1-.015-4.312,2.208,2.208,0,0,0,2.266-.525l.139-.138a2.206,2.206,0,0,0,.524-2.266,5.5,5.5,0,0,1,4.31.014,2.214,2.214,0,0,0,.527,2.251l.138.138a2.208,2.208,0,0,0,2.228.53,5.564,5.564,0,0,1,.278,3.458A5.377,5.377,0,0,1,17.051,14.151ZM4.61,20.511a.681.681,0,0,1-.961,0l-.139-.139a.683.683,0,0,1,0-.962l3.642-3.638,0,0a.683.683,0,0,1,.954.005l.139.139a.672.672,0,0,1,.019.939L6.682,18.439Zm13-17.365-2.529,2.53a7.022,7.022,0,0,0-6.15-.011L6.4,3.132A10.514,10.514,0,0,1,17.609,3.146Zm-14.1.5.139-.139a.682.682,0,0,1,.963,0L6.693,5.591,8.248,7.147a.682.682,0,0,1,0,.961l-.139.139a.682.682,0,0,1-.96,0l0,0L3.511,4.611A.682.682,0,0,1,3.51,3.649ZM3.133,6.4,5.665,8.929a7.021,7.021,0,0,0,.012,6.15l-2.53,2.529A10.513,10.513,0,0,1,3.133,6.4ZM6.42,20.868l2.533-2.533a7.119,7.119,0,0,0,4.73.488,6.89,6.89,0,0,0,1.376-.5l2.53,2.53a10.5,10.5,0,0,1-11.17.014Zm14.091-.5-.139.139a.682.682,0,0,1-.963,0L15.8,16.9l-.042-.048a.677.677,0,0,1,.012-.944l.139-.139a.668.668,0,0,1,.879-.054l3.727,3.7A.681.681,0,0,1,20.511,20.371Zm1.651-5.859a10.332,10.332,0,0,1-1.308,3.076l-2.531-2.53a6.92,6.92,0,0,0,.5-1.376,7.112,7.112,0,0,0-.489-4.73l2.534-2.534A10.458,10.458,0,0,1,22.162,14.513Z" transform="translate(0 0)"/></g></svg>