<svg xmlns="http://www.w3.org/2000/svg" width="26" height="33.315" viewBox="0 0 26 33.315"><defs><style>.a{fill:none;stroke:#002f34;}.b{fill:#002f34;}</style></defs><g transform="translate(-584.5 -1529.916)"><path class="a" d="M32.85,13.52c0,.924-1.324,1.7-1.551,2.581s.672,2.173.3,3-1.9.914-2.472,1.616-.3,2.245-1,2.824-2.1,0-2.9.372-1.231,1.9-2.1,2.1-1.877-.95-2.777-.95-1.929,1.151-2.777.95-1.3-1.7-2.1-2.1-2.229.2-2.9-.372-.455-2.127-1-2.824-2.079-.8-2.456-1.647.517-2.1.3-3S7.85,14.423,7.85,13.489s1.324-1.7,1.551-2.581-.672-2.173-.3-3,1.877-.888,2.446-1.585.279-2.225.982-2.824,2.1,0,2.9-.377,1.225-1.9,2.1-2.1,1.877.945,2.8.945,1.9-1.146,2.751-.945,1.3,1.7,2.1,2.1,2.223-.2,2.9.377.45,2.122,1,2.824,2.068.795,2.477,1.621-.517,2.1-.3,3S32.85,12.6,32.85,13.52Z" transform="translate(577.15 1529.403)"/><path class="a" d="M23.583,7.82A9,9,0,1,0,32.6,16.814v0A9,9,0,0,0,23.583,7.82Z" transform="translate(573.904 1526.106)"/><path class="b" d="M22.068,23.72h-.707v1.693H20.21V20.7h1.858c1.156,0,1.734.65,1.734,1.518A1.519,1.519,0,0,1,22.068,23.72Zm-.083-.914c.454,0,.65-.227.65-.588s-.2-.588-.65-.588h-.625v1.177Z" transform="translate(571.183 1519.874)"/><path class="b" d="M30.255,20.7c1.151,0,1.729.666,1.729,1.481a1.363,1.363,0,0,1-1.032,1.363l1.089,1.869h-1.3l-.981-1.781h-.274v1.781H28.33V20.7Zm-.067.955h-.712v1.167h.712c.428,0,.63-.222.63-.588s-.2-.578-.63-.578Z" transform="translate(567.262 1519.874)"/><path class="b" d="M38.751,25.394a2.416,2.416,0,1,1,2.3-2.413A2.416,2.416,0,0,1,38.751,25.394Zm0-1.032a1.229,1.229,0,0,0,1.239-1.368,1.249,1.249,0,1,0-2.488,0,1.229,1.229,0,0,0,1.249,1.352Z" transform="translate(563.453 1519.94)"/><path class="a" d="M-3129.495-12726l-3.064,6.738,5.532.766,4.119,3.556,1.944-4.1" transform="translate(3718.653 14277.353)"/><path class="a" d="M-3122.3-12726l3.064,6.738-5.532.766-4.119,3.556-1.754-4.044" transform="translate(3728.1 14277.353)"/></g></svg>