<svg id="Group_2322" data-name="Group 2322" xmlns="http://www.w3.org/2000/svg" width="38" height="38" viewBox="0 0 38 38">
  <rect id="Rectangle_698" data-name="Rectangle 698" width="38" height="38" rx="8" fill="#ff4134"/>
  <g id="Group_1406" data-name="Group 1406" transform="translate(6.346 6.346)">
    <path id="Path_222" data-name="Path 222" d="M1121.2,110.658h-20.564a.721.721,0,0,1-.731-.731V97.405a.786.786,0,0,1,.731-.731.721.721,0,0,1,.731.731V109.2h19.1V97.131a.786.786,0,0,1,.731-.731.721.721,0,0,1,.731.731v12.8A.673.673,0,0,1,1121.2,110.658Z" transform="translate(-1098.346 -85.067)" fill="#fff"/>
    <path id="Path_223" data-name="Path 223" d="M1108.631,110.258a.721.721,0,0,1-.731-.731v-12.8a.731.731,0,0,1,1.462,0v12.8C1109.271,109.983,1109,110.258,1108.631,110.258Z" transform="translate(-1099.035 -85.033)" fill="#fff"/>
    <path id="Path_224" data-name="Path 224" d="M1118.764,94.145a1.477,1.477,0,0,0,1.645,1.28c.914,0,1.645-.548,1.645-1.188l-2.1-8.865H1101.49l-2.1,8.865a1.62,1.62,0,0,0,1.645,1.188,1.477,1.477,0,0,0,1.645-1.28.786.786,0,0,1,.731-.731.721.721,0,0,1,.731.731,1.7,1.7,0,0,0,3.29,0,.786.786,0,0,1,.731-.731.721.721,0,0,1,.731.731,1.7,1.7,0,0,0,3.29,0,.786.786,0,0,1,.731-.731.721.721,0,0,1,.731.731,1.7,1.7,0,0,0,3.291,0,.786.786,0,0,1,.731-.731C1118.49,93.414,1118.764,93.779,1118.764,94.145Zm1.736,2.742a3.03,3.03,0,0,1-2.376-1.005,3.6,3.6,0,0,1-2.468,1.005,3.03,3.03,0,0,1-2.376-1.005,3.545,3.545,0,0,1-2.376,1.005,3.168,3.168,0,0,1-2.376-1.005,3.545,3.545,0,0,1-2.377,1.005,3.375,3.375,0,0,1-2.467-1.005,3.545,3.545,0,0,1-2.376,1.005,2.9,2.9,0,0,1-3.107-2.65v-.183l2.285-9.505a.8.8,0,0,1,.731-.548h19.558a.8.8,0,0,1,.731.548l2.285,9.505v.183A3.288,3.288,0,0,1,1120.5,96.887Z" transform="translate(-1098.2 -84)" fill="#fff" fill-rule="evenodd"/>
    <path id="Path_225" data-name="Path 225" d="M1108.016,103.662h-2.285a.731.731,0,1,1,0-1.462h2.285a.731.731,0,1,1,0,1.462Z" transform="translate(-1098.785 -85.566)" fill="#fff"/>
    <path id="Path_226" data-name="Path 226" d="M1121.732,92.862h-22.3a.721.721,0,0,1-.731-.731.786.786,0,0,1,.731-.731h22.3a.721.721,0,0,1,.731.731A.786.786,0,0,1,1121.732,92.862Z" transform="translate(-1098.243 -84.637)" fill="#fff"/>
  </g>
</svg>
