<svg xmlns="http://www.w3.org/2000/svg" width="24" height="24" viewBox="0 0 24 24"><g transform="translate(0 0)"><path d="M12.753,24H11.247a2.212,2.212,0,0,1-2.209-2.209v-.51a9.689,9.689,0,0,1-1.5-.625l-.361.361a2.209,2.209,0,0,1-3.125,0L2.982,19.953a2.209,2.209,0,0,1,0-3.125l.361-.361a9.69,9.69,0,0,1-.625-1.5h-.51A2.212,2.212,0,0,1,0,12.753V11.247A2.212,2.212,0,0,1,2.209,9.038h.51a9.692,9.692,0,0,1,.625-1.5l-.361-.361a2.209,2.209,0,0,1,0-3.125L4.047,2.982a2.209,2.209,0,0,1,3.125,0l.361.361a9.7,9.7,0,0,1,1.5-.625v-.51A2.212,2.212,0,0,1,11.247,0h1.506a2.212,2.212,0,0,1,2.209,2.209v.51a9.689,9.689,0,0,1,1.5.625l.361-.361a2.209,2.209,0,0,1,3.125,0l1.065,1.065a2.209,2.209,0,0,1,0,3.125l-.361.361a9.69,9.69,0,0,1,.625,1.5h.51A2.212,2.212,0,0,1,24,11.247v1.506a2.212,2.212,0,0,1-2.209,2.209h-.51a9.691,9.691,0,0,1-.625,1.5l.361.361a2.209,2.209,0,0,1,0,3.125l-1.065,1.065a2.209,2.209,0,0,1-3.125,0l-.361-.361a9.7,9.7,0,0,1-1.5.625v.51A2.212,2.212,0,0,1,12.753,24ZM7.768,19.18a8.288,8.288,0,0,0,2.148.892.7.7,0,0,1,.527.681v1.038a.8.8,0,0,0,.8.8h1.506a.8.8,0,0,0,.8-.8V20.752a.7.7,0,0,1,.527-.681,8.288,8.288,0,0,0,2.148-.892.7.7,0,0,1,.855.108l.735.735a.8.8,0,0,0,1.135,0l1.065-1.065a.8.8,0,0,0,0-1.136l-.736-.736a.7.7,0,0,1-.108-.855,8.287,8.287,0,0,0,.892-2.148.7.7,0,0,1,.681-.527h1.038a.8.8,0,0,0,.8-.8V11.247a.8.8,0,0,0-.8-.8H20.753a.7.7,0,0,1-.681-.527,8.288,8.288,0,0,0-.892-2.148.7.7,0,0,1,.108-.855l.735-.735a.8.8,0,0,0,0-1.136L18.958,3.977a.8.8,0,0,0-1.136,0l-.736.736a.7.7,0,0,1-.855.108,8.288,8.288,0,0,0-2.148-.892.7.7,0,0,1-.527-.681V2.209a.8.8,0,0,0-.8-.8H11.247a.8.8,0,0,0-.8.8V3.248a.7.7,0,0,1-.527.681,8.288,8.288,0,0,0-2.148.892.7.7,0,0,1-.855-.108l-.735-.735a.8.8,0,0,0-1.136,0L3.977,5.042a.8.8,0,0,0,0,1.136l.736.736a.7.7,0,0,1,.108.855,8.287,8.287,0,0,0-.892,2.148.7.7,0,0,1-.681.527H2.209a.8.8,0,0,0-.8.8v1.506a.8.8,0,0,0,.8.8H3.248a.7.7,0,0,1,.681.527,8.288,8.288,0,0,0,.892,2.148.7.7,0,0,1-.108.855l-.735.735a.8.8,0,0,0,0,1.136l1.065,1.065a.8.8,0,0,0,1.136,0l.736-.736a.706.706,0,0,1,.855-.108Z" transform="translate(0 0)"/><path d="M149.819,155.038a5.219,5.219,0,1,1,5.219-5.219A5.225,5.225,0,0,1,149.819,155.038Zm0-9.033a3.814,3.814,0,1,0,3.814,3.814A3.818,3.818,0,0,0,149.819,146.006Z" transform="translate(-137.819 -137.819)"/></g></svg>