
<svg width="140px" height="48px" viewBox="0 0 140 48" version="1.1" xmlns="http://www.w3.org/2000/svg" xmlns:xlink="http://www.w3.org/1999/xlink">
  <defs>
    <linearGradient x1="50%" y1="0%" x2="50%" y2="100%" id="linearGradient-41hfntfvlu-1">
      <stop stop-color="#1E79AF" offset="0%"></stop>
      <stop stop-color="#63FFD3" offset="100%"></stop>
    </linearGradient>
    <linearGradient x1="84.7178118%" y1="28.8782655%" x2="5.24419544%" y2="77.6611704%" id="linearGradient-41hfntfvlu-2">
      <stop stop-color="#DC4057" offset="0%"></stop>
      <stop stop-color="#9E36BB" offset="100%"></stop>
    </linearGradient>
    <linearGradient x1="50%" y1="0%" x2="50%" y2="97.8256537%" id="linearGradient-41hfntfvlu-3">
      <stop stop-color="#FF9676" offset="0%"></stop>
      <stop stop-color="#FFD074" offset="100%"></stop>
    </linearGradient>
    <linearGradient x1="17.4435371%" y1="20.2975638%" x2="100%" y2="79.7024362%" id="linearGradient-41hfntfvlu-4">
      <stop stop-color="#51C6AD" offset="0%"></stop>
      <stop stop-color="#D5FFA1" offset="100%"></stop>
    </linearGradient>
  </defs>
  <g id="Symbols" stroke="none" stroke-width="1" fill="none" fill-rule="evenodd">
    <g id="Footer" transform="translate(-877.000000, -951.000000)">
      <g id="google-play" transform="translate(877.000000, 951.000000)">
        <rect id="bg" stroke="#023136" fill="#FFFFFF" x="0.5" y="0.5" width="139" height="46.5" rx="6"></rect>
        <g transform="translate(10.461868, 18.521911)">
          <path d="M0.875914979,0.85720446 C0.481497123,0.981614308 0.22624982,1.38426096 0.22624982,1.99344022 L0.228680747,21.1660397 C0.228680747,21.7684775 0.476027538,22.1649956 0.859506224,22.2973726 L11.4978492,11.5687085 L0.875914979,0.85720446" id="left" fill="url(#linearGradient-41hfntfvlu-1)"></path>
          <path d="M0.859506224,22.2973726 C1.1354164,22.3917525 1.48121573,22.3476268 1.85800936,22.1392556 L14.8403734,14.9394187 L11.4978492,11.5687085 L0.859506224,22.2973726" id="bottom" fill="url(#linearGradient-41hfntfvlu-2)"></path>
          <path d="M14.8421966,14.9394187 L19.2689141,12.4849288 C20.1665338,11.9854509 20.1665338,11.1728033 19.2689141,10.674551 L14.8257878,8.21086834 L11.4978492,11.56687 L14.8421966,14.9394187" id="right" fill="url(#linearGradient-41hfntfvlu-3)"></path>
          <path d="M14.8251801,8.21086834 L1.85800936,1.02083712 C1.4903317,0.817981651 1.15121743,0.770791708 0.876522711,0.85720446 L11.4978492,11.56687 L14.8251801,8.21086834" id="top" fill="url(#linearGradient-41hfntfvlu-4)"></path>
        </g>
        <path d="M81.0446061,25.8625228 L79.7306902,26.6102076 L78.4568846,26.6102076 C78.9278767,27.0005971 79.9105788,27.829179 79.9105788,29.4005428 C79.9105788,30.9320709 79.0542849,31.6540157 78.1906982,32.3373506 C77.9257271,32.6063946 77.615784,32.8981142 77.615784,33.3491765 C77.615784,33.8069803 77.9257271,34.0551871 78.1487647,34.2402697 L78.8895896,34.8169676 C79.7902479,35.583651 80.6112934,36.2865972 80.6112934,37.7145526 C80.6112934,39.6597588 78.7443417,41.6215122 75.2164593,41.6215122 C72.2446515,41.6215122 70.8079738,40.1941696 70.8079738,38.6638672 C70.8079738,37.9192467 71.1756514,36.8645208 72.3886839,36.1419631 C73.6600585,35.3581198 75.3823701,35.2533214 76.3049068,35.1920357 C76.016842,34.8169676 75.6880591,34.4241267 75.6880591,33.7830789 C75.6880591,33.432525 75.792589,33.223541 75.8934724,32.9771727 C75.6692194,32.9986227 75.4431433,33.0206855 75.23773,33.0206855 C73.0626583,33.0206855 71.8332171,31.3843589 71.8332171,29.7719338 C71.8332171,28.8207806 72.2634911,27.7654419 73.147133,27.0005971 C74.3164087,26.0298326 75.7105452,25.8625228 76.81844,25.8625228 L81.0446061,25.8625228 Z M76.5315907,35.7693464 C76.3456248,35.7693464 75.23773,35.809795 74.3796128,36.1002889 C73.9256373,36.2675987 72.6135446,36.7621738 72.6135446,38.2311906 C72.6135446,39.6971431 74.0301671,40.7543204 76.2216475,40.7543204 C78.1906982,40.7543204 79.2359966,39.8025544 79.2359966,38.5210717 C79.2359966,37.4663458 78.5595913,36.9098722 77.0037982,35.7914093 C76.8354565,35.7693464 76.7345731,35.7693464 76.5315907,35.7693464 Z M121.93887,25.7944958 L125.444267,34.2727511 L128.91563,25.7944958 L130.08916,25.7944958 L125.105152,37.6312042 C124.587973,38.8507884 123.77422,39.437292 122.656602,39.437292 C122.321134,39.437292 121.878705,39.377232 121.619811,39.2969478 L121.797877,38.331699 C122.019699,38.4315946 122.398316,38.4928803 122.63837,38.4928803 C123.272841,38.4928803 123.714662,38.2311906 124.111511,37.3070031 L124.868137,35.5781352 L120.781749,25.7944958 L121.93887,25.7944958 Z M103.3988,25.5524175 C105.971328,25.5524175 107.703971,27.5202994 107.703971,30.6354484 C107.703971,33.7297604 105.971328,35.7387036 103.3988,35.7387036 C102.044774,35.7387036 100.831742,35.0345316 100.053845,33.9307773 L100.053845,39.198278 L99.0164471,39.198278 L99.0164471,25.7944958 L100.053845,25.7944958 L100.053845,27.321121 C100.729643,26.3344222 101.964553,25.5524175 103.3988,25.5524175 Z M43.0419291,21.4805996 C44.0793271,21.4805996 45.0772225,21.6344265 45.986389,21.884472 C47.4273208,22.2926343 48.1012953,22.7957894 48.5224533,23.0905733 L46.9253345,24.6202629 L46.2519678,24.7722513 L46.7320758,24.0006651 C46.0818029,23.3602302 44.8863947,22.1780302 42.6177324,22.1780302 C39.5845436,22.1780302 37.2964338,24.5032073 37.2964338,27.8978189 C37.2964338,31.5437016 39.9090723,34.973246 44.0993822,34.973246 C45.3306466,34.973246 45.9645107,34.7238134 46.5400326,34.490928 L46.5400326,31.3653604 L43.6368984,31.5228645 L45.175675,30.6893798 L49.2499081,30.6893798 L48.7515682,31.1729235 C48.6172595,31.2881405 48.5990275,31.3273633 48.5613481,31.4818031 C48.541293,31.6583057 48.5224533,32.2196822 48.5224533,32.417022 L48.5224533,34.7808091 L45.7730752,35.4157283 C44.6591031,35.5928438 43.6587767,35.7485093 42.5995004,35.7485093 C37.2964338,35.7485093 35.275726,31.8121327 35.275726,28.7313036 C35.275726,24.9689782 38.1387499,21.4805996 43.0419291,21.4805996 Z M115.926581,25.5481275 C117.05757,25.5481275 117.972813,25.8226871 118.662589,26.3705808 C119.351757,26.9129587 119.697556,27.696802 119.697556,28.7214979 L119.697556,33.5079063 C119.697556,33.8517188 119.713965,34.1838869 119.756506,34.5074751 C119.800263,34.8316762 119.870152,35.1552643 119.963135,35.4684339 L118.767727,35.4684339 C118.698445,35.1319758 118.64618,34.8353533 118.607893,34.5877593 C118.576291,34.3407782 118.558059,34.0882813 118.558059,33.8314945 C118.202536,34.3579382 117.698727,34.7961305 117.055139,35.1411686 C116.410943,35.4886582 115.798957,35.6590323 114.95968,35.6590323 C113.949022,35.6590323 113.16444,35.408374 112.60472,34.8997032 C112.046822,34.3916453 111.76605,33.7034075 111.76605,32.8325386 C111.76605,31.9628954 112.172622,31.2568848 112.983336,30.7169583 C113.794051,30.1745804 114.84178,29.9049236 116.138679,29.9049236 L118.558059,29.9049236 L118.558059,28.6994351 C118.558059,28.0050688 118.323475,27.4590137 117.854914,27.0631085 C117.384529,26.6665904 116.724533,26.4661864 115.868846,26.4661864 C115.086696,26.4661864 114.452224,26.6494304 113.969077,27.0061128 C113.490185,27.3701495 113.248915,27.8212119 113.248915,28.3648155 L112.187208,28.3648155 L112.16533,28.3127227 C112.127043,27.5797464 112.459472,26.9368601 113.166264,26.3816122 C113.870017,25.8269771 114.791946,25.5481275 115.926581,25.5481275 Z M90.3726795,25.5953174 C91.1104658,25.5953174 91.8683072,25.7816258 92.4845471,26.1744667 C93.5091827,26.8578016 93.7741537,27.7458305 93.9212248,28.2214071 L89.1000894,30.1856118 L87.5212025,30.3094088 C88.0323049,32.9385628 89.7959422,34.4676395 91.7449377,34.4676395 C92.7185238,34.4676395 93.4411168,34.1471156 94.104152,33.816786 C94.104152,33.816786 94.2372453,33.7469203 94.1424391,33.8425259 L93.1615602,34.7759062 C92.9348763,34.9015418 92.7094078,35.0474016 92.4845471,35.1509743 C91.8032799,35.4629182 91.1104658,35.5413639 90.4948336,35.5413639 C89.8396989,35.5413639 88.8126323,35.4984639 87.7649029,34.734232 C86.3093856,33.7003432 85.6730905,31.9230597 85.6730905,30.3743716 C85.6730905,27.1679069 88.2614197,25.5953174 90.3726795,25.5953174 Z M55.1370049,25.5953174 C58.1501385,25.5953174 60.0365376,27.9756517 60.0365376,30.47488 C60.0365376,32.9158871 58.1726246,35.4984639 54.8276694,35.4984639 C51.567189,35.4984639 49.8260378,32.9385628 49.8260378,30.6207399 C49.8260378,27.9125275 52.0193414,25.5953174 55.1370049,25.5953174 Z M66.0494348,25.5953174 C69.0643916,25.5953174 70.9526139,27.9756517 70.9526139,30.47488 C70.9526139,32.9158871 69.08627,35.4984639 65.7419226,35.4984639 C62.4820499,35.4984639 60.73786,32.9385628 60.73786,30.6207399 C60.73786,27.9125275 62.9305558,25.5953174 66.0494348,25.5953174 Z M110.157384,22.093456 L110.157384,35.4972382 L109.120594,35.4972382 L109.120594,22.093456 L110.157384,22.093456 Z M84.9741991,20.6317935 C84.3385118,21.0031845 84.1482917,21.2293285 84.0668557,21.9531119 L84.0619938,33.6825704 C84.0619938,34.4860251 84.2042031,34.6110479 84.8781775,34.6741721 C85.2294464,34.7158463 85.5794998,34.734232 85.9259069,34.7759062 L85.1674578,35.2312585 L81.5532775,35.2312585 C82.0273082,34.6110479 82.1087443,34.5491494 82.1087443,34.1360841 L82.1087443,33.6746033 L82.1008437,21.3782526 L80.5049404,21.3782526 L82.041286,20.6317935 L84.9741991,20.6317935 Z M54.6040242,26.2369781 C53.9251879,26.2369781 53.2512135,26.5035706 52.7589508,26.9386986 C51.956745,27.662482 51.8145358,28.5719609 51.8145358,29.4642798 C51.8145358,31.5075431 52.8203317,34.8776404 55.3017001,34.8776404 C56.1020828,34.8776404 56.9194819,34.4860251 57.3929048,33.825366 C57.8851675,33.163481 58.0079293,32.3373506 58.0079293,31.5320573 C58.0079293,29.7106481 57.1449503,26.2369781 54.6040242,26.2369781 Z M65.518885,26.2369781 C64.8424797,26.2369781 64.1612125,26.5035706 63.6701653,26.9386986 C62.8691749,27.662482 62.726358,28.5719609 62.726358,29.4642798 C62.726358,31.5075431 63.7278998,34.8776404 66.2135223,34.8776404 C67.0157281,34.8776404 67.8343427,34.4860251 68.3065502,33.825366 C68.8024593,33.163481 68.9227901,32.3373506 68.9227901,31.5320573 C68.9227901,29.7106481 68.0622421,26.2369781 65.518885,26.2369781 Z M103.223774,26.4968292 C101.887372,26.4968292 100.609312,27.555845 100.053845,28.4794196 L100.053845,32.7700272 C100.609312,33.6954404 101.887372,34.7930662 103.223774,34.7930662 C105.375751,34.7930662 106.589392,32.9869784 106.589392,30.6354484 C106.589392,28.2875956 105.375751,26.4968292 103.223774,26.4968292 Z M118.558059,30.735344 L116.127132,30.735344 C115.198518,30.735344 114.429738,30.9424895 113.825045,31.3604575 C113.219136,31.7771999 112.912232,32.2815807 112.912232,32.8680843 C112.912232,33.4214936 113.106706,33.8639759 113.493223,34.1992084 C113.880956,34.5381179 114.410898,34.7060406 115.086696,34.7060406 C115.967907,34.7060406 116.601163,34.5074751 117.248397,34.1146342 C117.891377,33.7242446 118.328944,33.214961 118.558059,32.5984275 L118.558059,30.735344 Z M75.5245793,26.5464706 C74.9928141,26.5464706 74.4166845,26.8155145 74.0897248,27.231644 C73.74271,27.662482 73.6387879,28.2214071 73.6387879,28.7588821 C73.6387879,30.1439376 74.4397783,32.4409234 76.2015924,32.4409234 C76.7157334,32.4409234 77.2687692,32.1890394 77.5932979,31.8617741 C78.0673286,31.3843589 78.1086544,30.7249255 78.1086544,30.3504702 C78.1086544,28.8630677 77.2292666,26.5464706 75.5245793,26.5464706 Z M89.7959422,26.2774266 C88.9767199,26.2774266 87.438551,26.9209258 87.438551,29.1554002 C87.438551,29.5041155 87.4798768,29.8755065 87.5005397,30.2468975 L91.2338353,28.6130223 C91.6252145,28.4696139 91.8288046,28.3458169 91.8288046,28.0577744 C91.8288046,27.231644 90.9020138,26.2774266 89.7959422,26.2774266 Z" id="logotype" fill="#002F34"></path>
        <path d="M38.6683678,7.62134896 C39.9571468,7.62134896 40.799405,8.23632132 41.3251971,8.98939926 L40.3832304,9.53500918 C40.0265092,9.03894386 39.4016279,8.65311528 38.6683678,8.65311528 C37.3603904,8.65311528 36.3880776,9.6440073 36.3880776,11.0417844 C36.3880776,12.4191243 37.3603904,13.4304534 38.6683678,13.4304534 C39.3427937,13.4304534 39.9373289,13.1232769 40.2345965,12.8359182 L40.2345965,11.8146801 L38.2521932,11.8146801 L38.2521932,10.793442 L41.3846506,10.793442 L41.3846506,13.2620018 C40.7405708,13.9859723 39.808513,14.4715094 38.6683678,14.4715094 C36.7447987,14.4715094 35.1983878,13.1139873 35.1983878,11.0417844 C35.1983878,8.96029181 36.7447987,7.62134896 38.6683678,7.62134896 Z M72.4280591,7.62134896 C74.3999342,7.62134896 75.8082395,9.06867062 75.8082395,11.0417844 C75.8082395,13.0142788 74.3999342,14.4616005 72.4280591,14.4616005 C70.4444171,14.4616005 69.0472594,13.0142788 69.0472594,11.0417844 C69.0472594,9.06867062 70.4444171,7.62134896 72.4280591,7.62134896 Z M47.3492013,7.73034708 L47.3492013,8.75220448 L43.9783105,8.75220448 L43.9783105,10.4565388 L47.2798388,10.4565388 L47.2798388,11.4777769 L43.9783105,11.4777769 L43.9783105,13.3214553 L47.3492013,13.3214553 L47.3492013,14.3426934 L42.8189668,14.3426934 L42.8189668,7.73034708 L47.3492013,7.73034708 Z M53.720637,7.73034708 L53.720637,8.75220448 L51.7184158,8.75220448 L51.7184158,14.3426934 L50.5584528,14.3426934 L50.5584528,8.75220448 L48.5562316,8.75220448 L48.5562316,7.73034708 L53.720637,7.73034708 Z M58.9110533,7.73034708 L58.9110533,14.3426934 L57.7517096,14.3426934 L57.7517096,7.73034708 L58.9110533,7.73034708 Z M65.3035454,7.73034708 L65.3035454,8.75220448 L63.3013242,8.75220448 L63.3013242,14.3426934 L62.1413613,14.3426934 L62.1413613,8.75220448 L60.1391401,8.75220448 L60.1391401,7.73034708 L65.3035454,7.73034708 Z M78.3523548,7.73034708 L81.7325352,12.3107455 L81.7325352,7.73034708 L82.8924982,7.73034708 L82.8924982,14.3426934 L81.7721709,14.3426934 L78.3220087,9.61428054 L78.3220087,14.3426934 L77.162665,14.3426934 L77.162665,7.73034708 L78.3523548,7.73034708 Z M72.4280591,8.65311528 C71.0891162,8.65311528 70.2369491,9.67373406 70.2369491,11.0417844 C70.2369491,12.3993064 71.0891162,13.4304534 72.4280591,13.4304534 C73.7558544,13.4304534 74.6185498,12.3993064 74.6185498,11.0417844 C74.6185498,9.67373406 73.7558544,8.65311528 72.4280591,8.65311528 Z" id="get-it-on" fill="#002F34"></path>
      </g>
    </g>
  </g>
</svg>
