
<svg width="140px" height="48px" viewBox="0 0 140 48" version="1.1" xmlns="http://www.w3.org/2000/svg" xmlns:xlink="http://www.w3.org/1999/xlink">
  <g id="Symbols" stroke="none" stroke-width="1" fill="none" fill-rule="evenodd">
    <g id="Footer" transform="translate(-727.000000, -951.000000)">
      <g id="apple" transform="translate(727.000000, 951.000000)">
        <rect id="bg" stroke="#023136" fill="#FFFFFF" x="0.5" y="0.5" width="139" height="46.5" rx="6"></rect>
        <path d="M54.2200617,34.7292 L51.8369136,34.7292 L50.5314815,30.62475 L45.9939506,30.62475 L44.7504321,34.7292 L42.4302469,34.7292 L46.9258025,20.7558 L49.7024691,20.7558 L54.2200617,34.7292 L54.2200617,34.7292 Z M61.6161111,24.44655 C62.8040123,24.44655 63.795679,24.9159 64.5890123,25.85565 C65.3844444,26.79645 65.7811111,28.03335 65.7811111,29.5674 C65.7811111,31.281 65.3183333,32.6355 64.3927778,33.62985 C63.5637654,34.515 62.534321,34.95705 61.3054938,34.95705 C59.9790741,34.95705 59.0262346,34.48035 58.4459259,33.52695 L58.4039506,33.52695 L58.4039506,38.8347 L56.1666667,38.8347 L56.1666667,27.97035 C56.1666667,26.89305 56.1383333,25.7874 56.0837654,24.6534 L58.051358,24.6534 L58.1762346,26.25045 L58.2182099,26.25045 C58.964321,25.04715 60.0966049,24.44655 61.6161111,24.44655 Z M73.1991975,24.44655 C74.3860494,24.44655 75.377716,24.9159 76.1731481,25.85565 C76.9654321,26.79645 77.3631481,28.03335 77.3631481,29.5674 C77.3631481,31.281 76.9003704,32.6355 75.9737654,33.62985 C75.1458025,34.515 74.116358,34.95705 72.8875309,34.95705 C71.5611111,34.95705 70.6082716,34.48035 70.0290123,33.52695 L69.987037,33.52695 L69.987037,38.8347 L67.7497531,38.8347 L67.7497531,27.97035 C67.7497531,26.89305 67.7214198,25.7874 67.6668519,24.6534 L69.6344444,24.6534 L69.759321,26.25045 L69.8012963,26.25045 C70.546358,25.04715 71.678642,24.44655 73.1991975,24.44655 Z M103.985988,24.4476 C105.463519,24.4476 106.652469,24.93795 107.549691,25.9197 C108.408086,26.87205 108.836235,28.1016 108.836235,29.60835 C108.836235,31.1571 108.393395,32.42865 107.509815,33.423 C106.58321,34.44675 105.353333,34.95705 103.820185,34.95705 C102.342654,34.95705 101.166296,34.4667 100.289012,33.486 C99.4117284,32.5053 98.9730864,31.26735 98.9730864,29.7753 C98.9730864,28.21395 99.424321,26.93505 100.329938,25.9407 C101.233457,24.9453 102.45284,24.4476 103.985988,24.4476 Z M86.6050617,20.55105 C87.8758642,20.55105 88.9315432,20.7726 89.7741975,21.21465 L89.2148765,23.03955 C88.4278395,22.61115 87.537963,22.39695 86.5420988,22.39695 C85.7550617,22.39695 85.1401235,22.5912 84.6993827,22.9776 C84.3268519,23.32305 84.1400617,23.7441 84.1400617,24.24285 C84.1400617,24.79515 84.3530864,25.2519 84.7812346,25.611 C85.1537654,25.9428 85.8306173,26.3019 86.8128395,26.68935 C88.0143827,27.1734 88.8969136,27.73935 89.4646296,28.38825 C90.0302469,29.03505 90.3125309,29.8446 90.3125309,30.8106 C90.3125309,31.9992 89.9001235,32.96625 89.0721605,33.7128 C88.1623457,34.52865 86.8957407,34.93605 85.2681481,34.93605 C83.7654321,34.93605 82.5607407,34.64625 81.6488272,34.0656 L82.1672222,32.19975 C83.1494444,32.79405 84.2271605,33.09225 85.4014198,33.09225 C86.2440741,33.09225 86.8999383,32.90115 87.3711111,32.52105 C87.8401852,32.14095 88.0741975,31.63065 88.0741975,30.99435 C88.0741975,30.42735 87.8811111,29.9496 87.4938889,29.56215 C87.1087654,29.1747 86.4654938,28.81455 85.5672222,28.4817 C83.1221605,27.56925 81.900679,26.2326 81.900679,24.4749 C81.900679,23.3262 82.3288272,22.38435 83.1861728,21.65145 C84.0403704,20.9175 85.18,20.55105 86.6050617,20.55105 Z M95.2435802,22.14285 L95.2435802,24.6513 L97.7096296,24.6513 L97.7096296,26.3334 L95.2435802,26.3334 L95.2435802,31.22535 C95.2435802,32.4696 95.6780247,33.0912 96.5490123,33.0912 C96.9488272,33.0912 97.2804321,33.05655 97.5427778,32.98725 L97.6046914,34.6872 C97.1639506,34.85205 96.583642,34.935 95.8648148,34.935 C94.9812346,34.935 94.2907407,34.66515 93.792284,34.1265 C93.2959259,33.5868 93.0461728,32.6817 93.0461728,31.41015 L93.0461728,26.3313 L91.577037,26.3313 L91.577037,24.6513 L93.0461728,24.6513 L93.0461728,22.80645 L95.2435802,22.14285 Z M121.930432,24.42765 C123.381728,24.42765 124.480432,24.9663 125.226543,26.0436 C125.817346,26.89935 126.114321,27.95775 126.114321,29.2146 C126.114321,29.6157 126.088086,29.9538 126.032469,30.22995 L119.320617,30.22995 C119.346852,31.22535 119.671111,31.9866 120.294444,32.5116 C120.860062,32.98095 121.591481,33.21615 122.489753,33.21615 C123.483519,33.21615 124.390185,33.0576 125.205556,32.73945 L125.556049,34.29345 C124.60321,34.70925 123.478272,34.9161 122.180185,34.9161 C120.618704,34.9161 119.393025,34.4562 118.501049,33.53745 C117.611173,32.6187 117.165185,31.38495 117.165185,29.83725 C117.165185,28.3179 117.579691,27.05265 118.409753,26.0436 C119.278642,24.9663 120.452901,24.42765 121.930432,24.42765 Z M115.549136,24.44655 C115.755864,24.44655 115.942654,24.46125 116.108457,24.4875 L116.108457,26.62215 C115.887037,26.5812 115.650926,26.5602 115.403272,26.5602 C114.616235,26.5602 114.007593,26.85735 113.579444,27.4527 C113.206914,27.9777 113.020123,28.6413 113.020123,29.44245 L113.020123,34.7292 L110.783889,34.7292 L110.804877,27.8265 C110.804877,26.6652 110.776543,25.60785 110.720926,24.65445 L112.66963,24.65445 L112.751481,26.58225 L112.813395,26.58225 C113.049506,25.9197 113.422037,25.3863 113.932037,24.98625 C114.430494,24.6261 114.968827,24.44655 115.549136,24.44655 Z M103.906235,26.08455 C103.006914,26.08455 102.323765,26.4867 101.854691,27.28995 C101.452778,27.95565 101.254444,28.7652 101.254444,29.7228 C101.254444,30.65205 101.452778,31.449 101.854691,32.1126 C102.338457,32.9169 103.014259,33.318 103.886296,33.318 C104.740494,33.318 105.411049,32.9085 105.894815,32.0916 C106.307222,31.41435 106.515,30.609 106.515,29.6808 C106.515,28.75155 106.316667,27.9546 105.914753,27.28995 C105.445679,26.48565 104.775123,26.08455 103.906235,26.08455 Z M60.8909877,26.2284 C60.3390123,26.2284 59.8374074,26.4132 59.389321,26.77755 C58.9401852,27.14505 58.646358,27.6249 58.5088889,28.2192 C58.4396296,28.4964 58.405,28.7232 58.405,28.9017 L58.405,30.5817 C58.405,31.3146 58.6295679,31.93305 59.0787037,32.4381 C59.5278395,32.94315 60.1112963,33.19515 60.8290741,33.19515 C61.6717284,33.19515 62.3275926,32.86965 62.7966667,32.22075 C63.2667901,31.5708 63.5018519,30.714 63.5018519,29.6493 C63.5018519,28.6686 63.2814815,27.8601 62.838642,27.2238 C62.3548765,26.5602 61.7053086,26.2284 60.8909877,26.2284 Z M72.4730247,26.2284 C71.92,26.2284 71.4194444,26.4132 70.9703086,26.77755 C70.5211728,27.14505 70.2283951,27.6249 70.0909259,28.2192 C70.022716,28.4964 69.987037,28.7232 69.987037,28.9017 L69.987037,30.5817 C69.987037,31.3146 70.2116049,31.93305 70.658642,32.4381 C71.1077778,32.9421 71.6912346,33.19515 72.4111111,33.19515 C73.2537654,33.19515 73.9096296,32.86965 74.3787037,32.22075 C74.8488272,31.5708 75.0838889,30.714 75.0838889,29.6493 C75.0838889,28.6686 74.8624691,27.8601 74.4196296,27.2238 C73.9358642,26.5602 73.2883951,26.2284 72.4730247,26.2284 Z M48.2532716,22.62165 C48.5985185,24.00345 48.8325309,24.88125 48.9574074,25.254 L48.9574074,25.254 L50.137963,28.90275 L46.3885185,28.90275 L47.5480864,25.254 C47.8524074,24.09375 48.0738272,23.21595 48.2112963,22.62165 L48.2112963,22.62165 Z M121.76358,25.97955 C121.03216,25.97955 120.43716,26.283 119.982778,26.892 C119.610247,27.37605 119.388827,27.9567 119.320617,28.6329 L123.980926,28.6329 C123.995617,27.97035 123.849753,27.39705 123.546481,26.913 C123.159259,26.29035 122.564259,25.97955 121.76358,25.97955 Z" id="app-store" fill="#002F34"></path>
        <path d="M53.1643827,10.70415 C53.8905556,10.70415 54.4740123,10.9446 54.9158025,11.42655 C55.3355556,11.89485 55.5464815,12.49965 55.5464815,13.23885 C55.5464815,14.0001 55.3292593,14.6238 54.8948148,15.1131 C54.4393827,15.61605 53.8359877,15.867 53.0825309,15.867 C52.356358,15.867 51.7781481,15.62655 51.3468519,15.14355 C50.9166049,14.6616 50.7014815,14.05365 50.7014815,13.32075 C50.7014815,12.55425 50.9229012,11.9253 51.3678395,11.43705 C51.8127778,10.9488 52.4109259,10.70415 53.1643827,10.70415 Z M76.6159877,10.70415 C77.3432099,10.70415 77.9256173,10.9446 78.3684568,11.42655 C78.7882099,11.89485 78.9991358,12.49965 78.9991358,13.23885 C78.9991358,14.0001 78.7819136,14.6238 78.3474691,15.1131 C77.892037,15.61605 77.2875926,15.867 76.5351852,15.867 C75.807963,15.867 75.2297531,15.62655 74.7995062,15.14355 C74.3692593,14.6616 74.1541358,14.05365 74.1541358,13.32075 C74.1541358,12.55425 74.3755556,11.9253 74.8204938,11.43705 C75.2654321,10.9488 75.8635802,10.70415 76.6159877,10.70415 Z M82.3088889,10.70415 C83.6017284,10.70415 84.2502469,11.38665 84.2502469,12.75165 L84.2502469,14.57445 C84.2502469,15.069 84.2743827,15.46275 84.3216049,15.75465 L83.3341358,15.75465 L83.252284,15.1845 L83.2218519,15.1845 C82.8839506,15.63915 82.402284,15.867 81.7768519,15.867 C81.3098765,15.867 80.9320988,15.71685 80.647716,15.41865 C80.3895679,15.14775 80.2604938,14.8107 80.2604938,14.41065 C80.2604938,13.80585 80.5123457,13.3449 81.0191975,13.0257 C81.525,12.7065 82.2364815,12.55005 83.1525926,12.5574 L83.1525926,12.465 C83.1525926,11.81295 82.8104938,11.48745 82.1252469,11.48745 C81.637284,11.48745 81.207037,11.6103 80.8355556,11.8539 L80.612037,11.1315 C81.0716667,10.84695 81.6393827,10.70415 82.3088889,10.70415 Z M90.5318519,8.5338 L90.5318519,14.42115 C90.5318519,14.9031 90.5444444,15.34725 90.570679,15.75465 L89.5947531,15.75465 L89.5433333,14.9598 L89.5129012,14.9598 C89.2012346,15.5646 88.6702469,15.867 87.9241358,15.867 C87.3280864,15.867 86.8317284,15.63285 86.4382099,15.16455 C86.0446914,14.69625 85.8484568,14.0883 85.8484568,13.34175 C85.8484568,12.5406 86.0614815,11.8917 86.4896296,11.3961 C86.9041358,10.9341 87.412037,10.7031 88.0164815,10.7031 C88.6807407,10.7031 89.1456173,10.92675 89.4100617,11.3751 L89.4310494,11.3751 L89.4310494,8.5338 L90.5318519,8.5338 Z M97.5952469,10.70415 C98.3203704,10.70415 98.9048765,10.9446 99.3456173,11.42655 C99.7653704,11.89485 99.9762963,12.49965 99.9762963,13.23885 C99.9762963,14.0001 99.7590741,14.6238 99.3246296,15.1131 C98.8691975,15.61605 98.2668519,15.867 97.5123457,15.867 C96.7872222,15.867 96.2090123,15.62655 95.7766667,15.14355 C95.3464198,14.6616 95.1312963,14.05365 95.1312963,13.32075 C95.1312963,12.55425 95.352716,11.9253 95.7976543,11.43705 C96.2425926,10.9488 96.8407407,10.70415 97.5952469,10.70415 Z M112.078827,9.57225 L112.078827,10.8039 L113.289815,10.8039 L113.289815,11.6292 L112.079877,11.6292 L112.079877,14.0337 C112.079877,14.6448 112.295,14.95035 112.721049,14.95035 C112.918333,14.95035 113.082037,14.93355 113.211111,14.8989 L113.239444,15.73365 C113.022222,15.81555 112.73679,15.8565 112.385247,15.8565 C111.950802,15.8565 111.612901,15.7242 111.368395,15.4596 C111.12284,15.195 111.001111,14.7498 111.001111,14.12505 L111.001111,11.6292 L110.278086,11.6292 L110.278086,10.80495 L111.001111,10.80495 L111.001111,9.89775 L112.078827,9.57225 Z M123.060617,10.6947 C123.772099,10.6947 124.312531,10.9593 124.677716,11.4885 C124.972593,11.9085 125.118457,12.42825 125.118457,13.04565 C125.118457,13.24305 125.103765,13.40895 125.077531,13.5444 L121.779321,13.5444 C121.794012,14.0337 121.95142,14.40645 122.25679,14.66475 C122.535926,14.89575 122.895864,15.01125 123.336605,15.01125 C123.824568,15.01125 124.269506,14.93355 124.67037,14.7771 L124.842469,15.5415 C124.373395,15.7452 123.82142,15.84705 123.182346,15.84705 C122.416296,15.84705 121.812901,15.6213 121.376358,15.1698 C120.937716,14.7183 120.720494,14.11245 120.720494,13.35225 C120.720494,12.6057 120.923025,11.9841 121.331235,11.4885 C121.757284,10.9593 122.333395,10.6947 123.060617,10.6947 Z M45.6529012,8.8383 C46.8544444,8.8383 47.7600617,9.09975 48.3708025,9.62265 C49.055,10.2138 49.3981481,11.05905 49.3981481,12.15945 C49.3981481,13.3953 49.027716,14.3256 48.2879012,14.95035 C47.6026543,15.5268 46.6288272,15.81555 45.3674691,15.81555 C44.742037,15.81555 44.2068519,15.78825 43.7587654,15.73365 L43.7587654,8.9811 C44.3432716,8.8866 44.9729012,8.8383 45.6529012,8.8383 Z M67.7707407,10.701 C68.2324691,10.701 68.6165432,10.8501 68.9219136,11.14935 C69.3017901,11.5158 69.4917284,12.06285 69.4917284,12.78945 L69.4917284,15.75465 L68.3919753,15.75465 L68.3919753,12.91965 C68.3919753,12.04605 68.0603704,11.60925 67.3950617,11.60925 C67.0687037,11.60925 66.8053086,11.72895 66.600679,11.9694 C66.3981481,12.20985 66.2953086,12.49335 66.2953086,12.8178 L66.2953086,15.7536 L65.1955556,15.7536 L65.1955556,12.2193 C65.1955556,11.7846 65.1819136,11.31315 65.155679,10.80285 L66.1221605,10.80285 L66.1735802,11.5767 L66.2040123,11.5767 C66.332037,11.33625 66.5230247,11.1378 66.7738272,10.97925 C67.0718519,10.79445 67.4055556,10.701 67.7707407,10.701 Z M57.7533333,10.80495 L58.3126543,13.158 C58.4480247,13.7145 58.5592593,14.24475 58.6484568,14.74665 L58.6683951,14.74665 C58.7502469,14.33295 58.8856173,13.80585 59.0766049,13.1685 L59.778642,10.806 L60.6748148,10.806 L61.3474691,13.1181 C61.5101235,13.68195 61.6423457,14.2248 61.7441358,14.7477 L61.7745679,14.7477 C61.8490741,14.23845 61.961358,13.6956 62.1103704,13.1181 L62.7106173,10.806 L63.7904321,10.806 L63.7904321,10.80495 L62.2425926,15.75465 L61.2351852,15.75465 L60.5940123,13.6053 C60.431358,13.06875 60.2991358,12.53535 60.1962963,12.00615 L60.176358,12.00615 C60.0808642,12.55005 59.948642,13.0824 59.778642,13.6053 L59.0975926,15.75465 L58.078642,15.75465 L56.6231481,10.80495 L57.7533333,10.80495 Z M72.5244444,8.5338 L72.5244444,15.75465 L71.4257407,15.75465 L71.4257407,8.5338 L72.5244444,8.5338 Z M104.16963,10.701 C104.630309,10.701 105.014383,10.8501 105.319753,11.14935 C105.700679,11.5158 105.889568,12.06285 105.889568,12.78945 L105.889568,15.75465 L104.790864,15.75465 L104.790864,12.91965 C104.790864,12.04605 104.459259,11.60925 103.792901,11.60925 C103.466543,11.60925 103.203148,11.72895 102.999568,11.9694 C102.795988,12.20985 102.694198,12.49335 102.694198,12.8178 L102.694198,15.7536 L101.593395,15.7536 L101.593395,12.2193 C101.593395,11.7846 101.580802,11.31315 101.554568,10.80285 L102.52,10.80285 L102.57142,11.5767 L102.601852,11.5767 C102.730926,11.33625 102.921914,11.1378 103.171667,10.97925 C103.470741,10.79445 103.803395,10.701 104.16963,10.701 Z M115.91537,8.5338 L115.91537,11.51685 L115.936358,11.51685 C116.282654,10.974 116.779012,10.7031 117.422284,10.7031 C117.877716,10.7031 118.254444,10.8522 118.553519,11.15145 C118.926049,11.5242 119.11284,12.0786 119.11284,12.8115 L119.11284,15.75465 L118.012037,15.75465 L118.012037,12.94065 C118.012037,12.0534 117.680432,11.60925 117.016173,11.60925 C116.506173,11.60925 116.157778,11.8665 115.96679,12.381 C115.934259,12.48915 115.91537,12.62145 115.91537,12.77685 L115.91537,15.7536 L114.816667,15.7536 L114.816667,8.5338 L115.91537,8.5338 Z M97.554321,11.5074 C97.1135802,11.5074 96.7777778,11.7048 96.5458642,12.0996 C96.3485802,12.42615 96.2509877,12.8241 96.2509877,13.2945 C96.2509877,13.75125 96.3496296,14.1429 96.5458642,14.46945 C96.7840741,14.86425 97.115679,15.06165 97.5438272,15.06165 C97.9635802,15.06165 98.2941358,14.8611 98.5312963,14.45895 C98.7338272,14.1261 98.8366667,13.7313 98.8366667,13.27455 C98.8366667,12.8178 98.7380247,12.42615 98.5417901,12.0996 C98.3098765,11.7048 97.9824691,11.5074 97.554321,11.5074 Z M83.1798765,13.2903 C81.9667901,13.2693 81.3602469,13.60215 81.3602469,14.2878 C81.3602469,14.5461 81.4295062,14.7393 81.5711728,14.86845 C81.7128395,14.9976 81.8933333,15.06165 82.1084568,15.06165 C82.3498148,15.06165 82.5754321,14.985 82.7811111,14.83275 C82.9878395,14.67945 83.1148148,14.4852 83.162037,14.24685 C83.1735802,14.1933 83.1798765,14.1282 83.1798765,14.05365 L83.1798765,13.2903 Z M76.5771605,11.5074 C76.134321,11.5074 75.7985185,11.7048 75.5687037,12.0996 C75.3714198,12.42615 75.2738272,12.8241 75.2738272,13.2945 C75.2738272,13.75125 75.3724691,14.1429 75.5687037,14.46945 C75.8069136,14.86425 76.1385185,15.06165 76.5666667,15.06165 C76.9864198,15.06165 77.3148765,14.8611 77.552037,14.45895 C77.7566667,14.1261 77.8574074,13.7313 77.8574074,13.27455 C77.8574074,12.8178 77.7587654,12.42615 77.5625309,12.0996 C77.332716,11.7048 77.0032099,11.5074 76.5771605,11.5074 Z M53.1245062,11.5074 C52.682716,11.5074 52.3469136,11.7048 52.1160494,12.0996 C51.9187654,12.42615 51.8211728,12.8241 51.8211728,13.2945 C51.8211728,13.75125 51.9198148,14.1429 52.1160494,14.46945 C52.3542593,14.86425 52.6858642,15.06165 53.1140123,15.06165 C53.5337654,15.06165 53.8632716,14.8611 54.1004321,14.45895 C54.3040123,14.1261 54.4058025,13.7313 54.4058025,13.27455 C54.4058025,12.8178 54.3071605,12.42615 54.1109259,12.0996 C53.8800617,11.7048 53.5516049,11.5074 53.1245062,11.5074 Z M88.267284,11.55885 C87.8569753,11.55885 87.5358642,11.7216 87.2997531,12.04815 C87.0657407,12.3747 86.9471605,12.79155 86.9471605,13.3008 C86.9471605,13.7901 87.0594444,14.187 87.2850617,14.49255 C87.5232716,14.81805 87.8443827,14.9808 88.2462963,14.9808 C88.607284,14.9808 88.8958642,14.84535 89.1151852,14.5734 C89.3271605,14.32245 89.4310494,14.02005 89.4310494,13.66725 L89.4310494,12.84195 C89.4310494,12.69915 89.4205556,12.58365 89.4006173,12.49545 C89.3387037,12.23085 89.2054321,12.00825 89.0029012,11.8287 C88.7982716,11.64915 88.5516667,11.55885 88.267284,11.55885 Z M45.7441975,9.70455 C45.3979012,9.70455 45.1030247,9.72765 44.8585185,9.77595 L44.8585185,14.9094 C44.9938889,14.9304 45.2415432,14.93985 45.6014815,14.93985 C46.4430864,14.93985 47.0926543,14.7057 47.5501852,14.2374 C48.007716,13.7691 48.2385802,13.0866 48.2385802,12.1899 C48.2385802,11.38875 48.0266049,10.7745 47.6026543,10.3461 C47.1787037,9.91875 46.5595679,9.70455 45.7441975,9.70455 Z M122.980864,11.457 C122.621975,11.457 122.329198,11.6061 122.105679,11.90535 C121.923086,12.1437 121.815,12.42825 121.779321,12.7611 L124.069074,12.7611 C124.077469,12.43455 124.005062,12.15315 123.856049,11.91585 C123.665062,11.6103 123.374383,11.457 122.980864,11.457 Z" id="download-on-the" fill="#002F34"></path>
        <path d="M29.2434973,22.858547 C29.2128054,19.4475058 32.036466,17.7880231 32.1655839,17.710764 C30.5664268,15.3792331 28.0877861,15.0606717 27.2167694,15.0352715 C25.1350076,14.8161944 23.1156881,16.2809418 22.0552279,16.2809418 C20.9736008,16.2809418 19.3405766,15.0564383 17.5805513,15.092422 C15.3156961,15.1273474 13.1968923,16.438635 12.0348311,18.474888 C9.63662457,22.6267698 11.4252252,28.7281204 13.722889,32.0841278 C14.8722501,33.7277354 16.2152881,35.5629031 17.9731968,35.4983441 C19.6930051,35.4274351 20.3354196,34.4019002 22.4108313,34.4019002 C24.4671928,34.4019002 25.0704487,35.4983441 26.8632827,35.4570688 C28.7090338,35.4274351 29.871095,33.8060528 30.9802391,32.1476284 C32.3084603,30.2637769 32.8418654,28.4085007 32.8630323,28.3132497 C32.8196402,28.2984329 29.2784227,26.9469282 29.2434973,22.858547 M25.8567979,12.8275668 C26.7817902,11.6707973 27.4146796,10.0970404 27.2389946,8.5 C25.90019,8.55926724 24.2258905,9.42605061 23.2617395,10.5574199 C22.4087146,11.5543795 21.6467073,13.188462 21.8435592,14.7251768 C23.3474654,14.8373612 24.8915886,13.9663445 25.8567979,12.8275668" fill="#002F34"></path>
      </g>
    </g>
  </g>
</svg>
