<?xml version="1.0" encoding="utf-8"?>
<!-- Generator: Adobe Illustrator 16.0.0, SVG Export Plug-In . SVG Version: 6.00 Build 0)  -->
<!DOCTYPE svg PUBLIC "-//W3C//DTD SVG 1.1//EN" "http://www.w3.org/Graphics/SVG/1.1/DTD/svg11.dtd">
<svg version="1.1" id="Layer_1" xmlns="http://www.w3.org/2000/svg" xmlns:xlink="http://www.w3.org/1999/xlink" x="0px" y="0px"
	 width="64px" height="64.006px" viewBox="0 0 64 64.006" enable-background="new 0 0 64 64.006" xml:space="preserve">
<g>
	<path fill-rule="evenodd" clip-rule="evenodd" d="M15.215,0.003H3.46C1.554,0.003,0,1.504,0,3.351v12.063
		c0,1.845,1.554,3.347,3.46,3.347h11.754c1.909,0,3.462-1.501,3.462-3.347V3.351C18.677,1.504,17.124,0.003,15.215,0.003z
		 M14.579,14.797H4.097V3.976h10.482V14.797z"/>
	<path fill-rule="evenodd" clip-rule="evenodd" d="M15.215,22.673H3.46C1.554,22.673,0,24.175,0,26.02V38.08
		c0,1.845,1.554,3.351,3.46,3.351h11.754c1.909,0,3.462-1.506,3.462-3.351V26.02C18.677,24.175,17.124,22.673,15.215,22.673z
		 M14.579,37.455H4.097V26.633h10.482V37.455z"/>
	<path fill-rule="evenodd" clip-rule="evenodd" d="M38.099,0.003H26.344c-1.906,0-3.461,1.501-3.461,3.348v12.063
		c0,1.845,1.555,3.347,3.461,3.347h11.755c1.906,0,3.459-1.501,3.459-3.347V3.351C41.558,1.504,40.005,0.003,38.099,0.003z
		 M37.463,14.797h-10.47V3.976h10.47V14.797z"/>
	<path fill-rule="evenodd" clip-rule="evenodd" d="M38.099,22.673H26.344c-1.906,0-3.461,1.501-3.461,3.346V38.08
		c0,1.845,1.555,3.351,3.461,3.351h11.755c1.906,0,3.459-1.506,3.459-3.351V26.02C41.558,24.175,40.005,22.673,38.099,22.673z
		 M37.463,37.455h-10.47V26.633h10.47V37.455z"/>
	<path fill-rule="evenodd" clip-rule="evenodd" d="M60.541,0.003H48.787c-1.906,0-3.462,1.501-3.462,3.348v12.063
		c0,1.845,1.556,3.347,3.462,3.347h11.754c1.906,0,3.459-1.501,3.459-3.347V3.351C64,1.504,62.447,0.003,60.541,0.003z
		 M59.905,14.797H49.423V3.976h10.482V14.797z"/>
	<path fill-rule="evenodd" clip-rule="evenodd" d="M60.541,22.673H48.787c-1.906,0-3.462,1.501-3.462,3.346V38.08
		c0,1.845,1.556,3.351,3.462,3.351h11.754c1.906,0,3.459-1.506,3.459-3.351V26.02C64,24.175,62.447,22.673,60.541,22.673z
		 M59.905,37.455H49.423V26.633h10.482V37.455z"/>
	<path fill-rule="evenodd" clip-rule="evenodd" d="M15.215,45.249H3.46C1.554,45.249,0,46.75,0,48.593v12.065
		c0,1.844,1.554,3.345,3.46,3.345h11.754c1.909,0,3.462-1.501,3.462-3.345V48.593C18.677,46.75,17.124,45.249,15.215,45.249z
		 M14.579,60.03H4.097V49.211h10.482V60.03z"/>
	<path fill-rule="evenodd" clip-rule="evenodd" d="M38.099,45.249H26.344c-1.906,0-3.461,1.501-3.461,3.344v12.065
		c0,1.844,1.555,3.345,3.461,3.345h11.755c1.906,0,3.459-1.501,3.459-3.345V48.593C41.558,46.75,40.005,45.249,38.099,45.249z
		 M37.463,60.03h-10.47V49.211h10.47V60.03z"/>
	<path fill-rule="evenodd" clip-rule="evenodd" d="M60.541,45.249H48.787c-1.906,0-3.462,1.501-3.462,3.344v12.065
		c0,1.844,1.556,3.345,3.462,3.345h11.754c1.906,0,3.459-1.501,3.459-3.345V48.593C64,46.75,62.447,45.249,60.541,45.249z
		 M59.905,60.03H49.423V49.211h10.482V60.03z"/>
</g>
</svg>
