
<svg width="20px" height="20px" viewBox="0 0 20 20" version="1.1" xmlns="http://www.w3.org/2000/svg" xmlns:xlink="http://www.w3.org/1999/xlink">
    <g id="Icons" stroke="none" stroke-width="1" fill="none" fill-rule="evenodd">
        <g id="icon/basic/stack" transform="translate(-2.000000, -2.000000)" fill="#002F34">
            <path d="M21,12.99991 L22,13.99992 L22,20.99999 L21,22 L3,22 L2,20.99999 L2,13.99992 L3,12.99991 L21,12.99991 Z M20,14.99993 L4,14.99993 L4,20.00048 L20,20.00048 L20,14.99993 Z M21,2 L22,3.00001 L22,9.99958 L21,11.00009 L3,11.00009 L2,9.99958 L2,3.00001 L3,2 L21,2 Z M20,4.00002 L4,4.00002 L4,9.00007 L20,9.00007 L20,4.00002 Z" id="Combined-Shape"></path>
        </g>
    </g>
</svg>