<svg id="Artwork" xmlns="http://www.w3.org/2000/svg" viewBox="0 0 566.93 324.51"><defs><style>.cls-1{fill:#002f34;}</style></defs><title>OLX_Logo_Charcoal_RGB</title><path id="Logo" class="cls-1" d="M449.24,401.53h-77V77h77ZM344.48,239.27A133.73,133.73,0,1,1,210.75,105.54,133.73,133.73,0,0,1,344.48,239.27Zm-93.21,0a40.53,40.53,0,1,0-40.52,40.53A40.52,40.52,0,0,0,251.27,239.27ZM644,158H592.8l-30,30-30-30H481.6v52l29.59,29.59-29.59,29.6v51.29h51.86l29.31-29.31,29.31,29.31H644V269.23l-29.6-29.6L644,210Z" transform="translate(-77.02 -77.02)"/></svg>