<?xml version="1.0" encoding="UTF-8"?>
<svg width="280px" height="280px" viewBox="0 0 280 280" version="1.1" xmlns="http://www.w3.org/2000/svg" xmlns:xlink="http://www.w3.org/1999/xlink">
    <title>illustration/dark mode/items/dm-no-ads-1</title>
    <defs>
        <polygon id="path-1" points="74.2433071 2.13162821e-13 149.817126 2.13162821e-13 149.817126 58.7298228 74.2433071 58.7298228"></polygon>
    </defs>
    <g id="illustration/dark-mode/items/dm-no-ads-1" stroke="none" stroke-width="1" fill="none" fill-rule="evenodd">
        <g id="Group" transform="translate(15.000000, 15.000000)">
            <polygon id="Fill-1" fill="#35373C" points="147.953937 167.710433 123.129134 156.232087 126.858465 148.166142 151.683268 159.644488"></polygon>
            <path d="M60.4978346,114.722835 C39.1395669,104.84685 13.819685,114.155906 3.94370079,135.514173 C-5.93129921,156.872441 3.37775591,182.192323 24.7360236,192.068307 C46.0942913,201.943307 71.4141732,192.635236 81.2891732,171.275984 C91.1641732,149.918701 81.8561024,124.598819 60.4978346,114.722835 M49.4584646,138.597835 C57.6179134,142.370472 61.186811,152.07815 57.4141732,160.237598 C53.6415354,168.397047 43.9348425,171.964961 35.7753937,168.192323 C27.6159449,164.419685 24.0470472,154.712992 27.819685,146.553543 C31.5923228,138.394094 41.2990157,134.825197 49.4584646,138.597835" id="Fill-2" fill="#35373C"></path>
            <path d="M176.186811,168.214075 C154.828543,158.339075 129.508661,167.647146 119.633661,189.006398 C109.757677,210.363681 119.066732,235.683563 140.425,245.559547 C161.783268,255.434547 187.10315,246.126476 196.97815,224.768209 C206.85315,203.409941 197.545079,178.090059 176.186811,168.214075 M165.147441,192.089075 C173.30689,195.861713 176.875787,205.56939 173.10315,213.728839 C169.330512,221.888287 159.623819,225.457185 151.46437,221.684547 C143.304921,217.911909 139.736024,208.204232 143.508661,200.044783 C147.281299,191.885335 156.988976,188.316437 165.147441,192.089075" id="Fill-4" fill="#35373C"></path>
            <path d="M110.883071,178.941831 L152.469685,198.170177 L148.328937,152.54124 L110.883071,178.941831 Z M95.5251969,102.089961 L97.1870748,114.674961 L149.671075,138.941961 L149.689173,138.929035 L157.81811,142.687894 L163.576969,206.154429 L156.258071,211.315846 L105.725075,187.949961 L96.5940945,189.15689 L88.4260748,127.313961 L45.713878,157.359941 L39.7640748,148.90128 L86.8980748,115.745961 L85.2732283,103.444291 L95.5251969,102.089961 Z M98.7900748,126.808961 L104.590075,170.724961 L139.911075,145.822961 L98.7900748,126.808961 Z" id="Combined-Shape" fill="#4C7BE6"></path>
            <path d="M90.2390748,179.706201 L113.363091,190.39813 L108.402461,201.126476 L85.2784449,190.434547 L90.2390748,179.706201 Z" id="Combined-Shape" fill="#3CDED8"></path>
            <path d="M81.4420276,99.8955709 C80.5995079,95.1504921 83.7628937,90.6209646 88.5079724,89.7784449 C93.2530512,88.9359252 97.7825787,92.099311 98.6250984,96.8443898 C99.4676181,101.589469 96.3042323,106.118996 91.5591535,106.961516 C86.8140748,107.804035 82.2845472,104.64065 81.4420276,99.8955709" id="Fill-16" fill="#35373C"></path>
            <polygon id="Fill-18" fill="#35373C" points="169.359547 144.972638 140.470768 131.615354 144.812303 122.228543 173.700098 135.585827"></polygon>
            <path d="M79.8733268,191.043209 C78.1981299,190.747933 76.4776575,190.584547 74.717815,190.584547 C58.4274606,190.584547 45.221752,203.790256 45.221752,220.079626 C45.221752,236.36998 58.4274606,249.574705 74.717815,249.574705 C76.4776575,249.574705 78.1981299,249.412303 79.8733268,249.116043 C72.7109252,241.542224 68.3103346,231.327657 68.3103346,220.079626 C68.3103346,208.831594 72.7109252,198.618012 79.8733268,191.043209" id="Fill-20" fill="#D95B43"></path>
            <path d="M104.212402,220.079528 C104.212402,205.55 93.7025591,193.484055 79.8728346,191.04311 C72.7104331,198.617913 68.3098425,208.831496 68.3098425,220.079528 C68.3098425,231.327559 72.7104331,241.542126 79.8728346,249.115945 C93.7025591,246.675984 104.212402,234.609055 104.212402,220.079528" id="Fill-22" fill="#75382F"></path>
            <polygon id="Fill-24" fill="#3CDED8" points="214.984055 35.9543307 148.696654 62.4375984 142.004724 78.0360236 195.365945 162.285039 212.74685 155.341142 232.58248 147.415945 249.963386 140.472047 230.583465 42.6472441"></polygon>
            <polygon id="Fill-26" fill="#267979" points="142.004232 78.0363189 195.366437 162.285335 194.195177 44.2597441 148.697146 62.4369094"></polygon>
            <polygon id="Fill-28" fill="#002F34" points="75.3826772 20.3913386 129.425 2.41299213 147.403346 56.455315"></polygon>
            <mask id="mask-2" fill="white">
                <use xlink:href="#path-1"></use>
            </mask>
            <g id="Clip-31"></g>
            <path d="M128.622244,-0.000492125984 L131.83878,1.61072835 L149.817126,55.6520669 L146.263976,58.7298228 L74.2433071,22.6658465 L74.5799213,17.9778543 L128.622244,-0.000492125984 Z" id="Combined-Shape" fill="#35373C"></path>
            <polygon id="Fill-33" fill="#F0C22F" points="124.557776 102.077461 52.5380906 66.0134843 74.3707677 22.4140748 146.391437 58.4770669"></polygon>
            <path d="M95.0254921,56.6408465 C92.9034449,60.8800197 87.7459646,62.5965551 83.5058071,60.4735236 C79.2656496,58.3504921 77.5500984,53.1930118 79.6731299,48.9528543 C81.7961614,44.7136811 86.9536417,42.9981299 91.192815,45.1201772 C95.4329724,47.2441929 97.1485236,52.4016732 95.0254921,56.6408465" id="Fill-35" fill="#35373C"></path>
            <path d="M120.675591,69.4851378 C118.552559,73.724311 113.395079,75.4398622 109.154921,73.317815 C104.915748,71.1947835 103.200197,66.0373031 105.322244,61.7971457 C107.44626,57.5579724 112.60374,55.8424213 116.842913,57.9644685 C121.082087,60.0875 122.797638,65.2449803 120.675591,69.4851378" id="Fill-37" fill="#35373C"></path>
            <polygon id="Fill-39" fill="#35373C" points="82.7550197 81.1447835 67.4026575 73.4567913 79.6733268 48.9528543 95.025689 56.6408465"></polygon>
        </g>
    </g>
</svg>