<svg xmlns="http://www.w3.org/2000/svg" width="26.489" height="28.047" viewBox="0 0 26.489 28.047"><defs><style>.a{fill:#002f34;}</style></defs><path class="a" d="M28.276,6.424c0-.039.005-.079.005-.12a.72.72,0,0,0-.04-.226C27.74,2.61,22.076,0,15.036,0s-12.7,2.61-13.2,6.077a.711.711,0,0,0-.041.227c0,.04,0,.078.005.117v.053c0,.039-.005.077-.005.115V21.459c0,3.694,5.818,6.588,13.244,6.588s13.244-2.894,13.244-6.588V6.589c0-.04,0-.079-.005-.118ZM15.036,1.778c5.954,0,11.126,2.135,11.323,4.669-.2,2.533-5.37,4.669-11.323,4.669S3.911,8.979,3.714,6.446C3.91,3.913,9.082,1.778,15.036,1.778Zm11.34,19.681c0,2.563-5.3,4.811-11.34,4.811S3.7,24.022,3.7,21.459V19.847c2.345,1.937,6.573,3.113,11.34,3.113s9-1.176,11.34-3.113v1.612Zm0-5.087c0,2.563-5.3,4.811-11.34,4.811S3.7,18.935,3.7,16.372V14.656c2.345,1.937,6.573,3.113,11.34,3.113s9-1.176,11.34-3.113v1.716Zm0-5.191c0,2.563-5.3,4.811-11.34,4.811S3.7,13.744,3.7,11.181v-1.4c2.346,1.936,6.574,3.113,11.34,3.113s9-1.177,11.34-3.113v1.4Z" transform="translate(-1.792)"/></svg>