<svg xmlns="http://www.w3.org/2000/svg" width="54" height="54" viewBox="0 0 54 54"><defs><style>.a{fill:none;}.b,.c{stroke:none;}.c{fill:#ff4131;}</style></defs><g transform="translate(-813 -431)"><g class="a" transform="translate(813 431)"><path class="b" d="M3,0H22a3,3,0,0,1,3,3V22a3,3,0,0,1-3,3H3a3,3,0,0,1-3-3V3A3,3,0,0,1,3,0Z"/><path class="c" d="M 3 2 C 2.448600769042969 2 2 2.448600769042969 2 3 L 2 22 C 2 22.55139923095703 2.448600769042969 23 3 23 L 22 23 C 22.55139923095703 23 23 22.55139923095703 23 22 L 23 3 C 23 2.448600769042969 22.55139923095703 2 22 2 L 3 2 M 3 0 L 22 0 C 23.65685081481934 0 25 1.3431396484375 25 3 L 25 22 C 25 23.65685081481934 23.65685081481934 25 22 25 L 3 25 C 1.3431396484375 25 0 23.65685081481934 0 22 L 0 3 C 0 1.3431396484375 1.3431396484375 0 3 0 Z"/></g><g class="a" transform="translate(842 431)"><path class="b" d="M3,0H22a3,3,0,0,1,3,3V22a3,3,0,0,1-3,3H3a3,3,0,0,1-3-3V3A3,3,0,0,1,3,0Z"/><path class="c" d="M 3 2 C 2.448600769042969 2 2 2.448600769042969 2 3 L 2 22 C 2 22.55139923095703 2.448600769042969 23 3 23 L 22 23 C 22.55139923095703 23 23 22.55139923095703 23 22 L 23 3 C 23 2.448600769042969 22.55139923095703 2 22 2 L 3 2 M 3 0 L 22 0 C 23.65685081481934 0 25 1.3431396484375 25 3 L 25 22 C 25 23.65685081481934 23.65685081481934 25 22 25 L 3 25 C 1.3431396484375 25 0 23.65685081481934 0 22 L 0 3 C 0 1.3431396484375 1.3431396484375 0 3 0 Z"/></g><g class="a" transform="translate(842 460)"><path class="b" d="M12.5,0A12.5,12.5,0,1,1,0,12.5,12.5,12.5,0,0,1,12.5,0Z"/><path class="c" d="M 12.5 2 C 6.71027946472168 2 2 6.71027946472168 2 12.5 C 2 18.28972053527832 6.71027946472168 23 12.5 23 C 18.28972053527832 23 23 18.28972053527832 23 12.5 C 23 6.71027946472168 18.28972053527832 2 12.5 2 M 12.5 0 C 19.40356063842773 0 25 5.596439361572266 25 12.5 C 25 19.40356063842773 19.40356063842773 25 12.5 25 C 5.596439361572266 25 0 19.40356063842773 0 12.5 C 0 5.596439361572266 5.596439361572266 0 12.5 0 Z"/></g><g class="a" transform="translate(813 460)"><path class="b" d="M3,0H22a3,3,0,0,1,3,3V22a3,3,0,0,1-3,3H3a3,3,0,0,1-3-3V3A3,3,0,0,1,3,0Z"/><path class="c" d="M 3 2 C 2.448600769042969 2 2 2.448600769042969 2 3 L 2 22 C 2 22.55139923095703 2.448600769042969 23 3 23 L 22 23 C 22.55139923095703 23 23 22.55139923095703 23 22 L 23 3 C 23 2.448600769042969 22.55139923095703 2 22 2 L 3 2 M 3 0 L 22 0 C 23.65685081481934 0 25 1.3431396484375 25 3 L 25 22 C 25 23.65685081481934 23.65685081481934 25 22 25 L 3 25 C 1.3431396484375 25 0 23.65685081481934 0 22 L 0 3 C 0 1.3431396484375 1.3431396484375 0 3 0 Z"/></g></g></svg>