
<svg width="98px" height="56px" viewBox="0 0 98 56" version="1.1" xmlns="http://www.w3.org/2000/svg" xmlns:xlink="http://www.w3.org/1999/xlink">
  <g id="Logo" stroke="none" stroke-width="1" fill="none" fill-rule="evenodd">
    <g id="logo/white" fill="#fff">
      <path d="M64.1663981,56 L50.9012047,56 L50.9012047,0 L64.1663981,0 L64.1663981,56 Z M46.1636357,28.0676329 C46.1636357,40.8151352 35.827816,51.1304348 23.0935339,51.1304348 C10.3592519,51.1304348 0.00617710252,40.7978855 0.00617710252,28.0676329 C0.00617710252,15.3373802 10.3419968,5.00483092 23.0762788,5.00483092 C35.8105608,5.00483092 46.1636357,15.3201305 46.1636357,28.0676329 Z M30.0559009,28.0676329 C30.0559009,24.2147313 26.9404688,21.1014493 23.0849064,21.1014493 C19.229344,21.1014493 16.1139119,24.2147313 16.1139119,28.0676329 C16.1139119,31.9205344 19.229344,35.0338164 23.0849064,35.0338164 C26.9404688,35.0338164 30.0559009,31.9205344 30.0559009,28.0676329 Z M97.8363114,14.0676329 L89.0198821,14.0676329 L83.8438962,19.2368636 L78.6679103,14.0676329 L69.851481,14.0676329 L69.851481,23.0276329 L74.9584537,28.1279405 L69.851481,33.2282482 L69.851481,42.0676329 L78.8059366,42.0676329 L83.8611495,37.0190175 L88.9163624,42.0676329 L97.870818,42.0676329 L97.870818,33.2282482 L92.7638452,28.1279405 L97.870818,23.0276329 L97.870818,14.0676329 L97.8363114,14.0676329 Z" id="Logo"></path>
    </g>
  </g>
</svg>
