<svg xmlns="http://www.w3.org/2000/svg" width="24" height="24" viewBox="0 0 24 24"><defs><style>.a{fill:#002f34;}</style></defs><path class="a" d="M11.864,16.75H23.136v1.5H11.864Z" transform="translate(-7.249 17.5) rotate(-45)"/><path class="a" d="M17.5,24A6.5,6.5,0,1,1,24,17.5,6.508,6.508,0,0,1,17.5,24Zm0-11.5a5,5,0,1,0,5,5A5.006,5.006,0,0,0,17.5,12.5Z"/><path class="a" d="M8.25,20h-6A2.253,2.253,0,0,1,0,17.75V9.25A2.253,2.253,0,0,1,2.25,7h11.5a2.217,2.217,0,0,1,1.675.757.75.75,0,0,1-1.129.987A.723.723,0,0,0,13.75,8.5H2.25a.752.752,0,0,0-.75.75v8.5a.752.752,0,0,0,.75.75h6a.75.75,0,0,1,0,1.5Z"/><path class="a" d="M12.25,8.5a.75.75,0,0,1-.75-.75V5a3.5,3.5,0,0,0-7,0V7.75a.75.75,0,0,1-1.5,0V5A5,5,0,0,1,13,5V7.75A.75.75,0,0,1,12.25,8.5Z"/></svg>