<svg xmlns="http://www.w3.org/2000/svg" width="24.013" height="17.662" viewBox="0 0 24.013 17.662"><defs><style>.a{fill:#002f34;stroke:#002f34;stroke-width:0.5px;}</style></defs><g transform="translate(0.25 -68.638)"><g transform="translate(0 68.888)"><g transform="translate(0 0)"><path class="a" d="M19.043,74.369H17.561l.446-5.122v-.027h0A.344.344,0,0,0,17.8,68.9h0l-.024-.008h-.009l-.02-.005H10.613a.345.345,0,1,0,0,.689h6.676L16.6,77.452h0l-.173,1.987H4.457l.2-2.067h2.28a.345.345,0,0,0,0-.689H4.724l.423-4.364H8.775a.345.345,0,1,0,0-.689H5.214l.2-2.052H9.235a.345.345,0,1,0,0-.689H5.1a.344.344,0,0,0-.336.272h0a.061.061,0,0,1,0,.026c0,.008,0,.005,0,.008h0l-.236,2.432H.344a.345.345,0,0,0,0,.689h4.11l-.426,4.35H2.8a.345.345,0,0,0,0,.689H3.965l-.228,2.376h0l-.356,3.675h0v.033h0v.035a.081.081,0,0,0,0,.027v.008a.028.028,0,0,0,.005.02c.005.007,0,.009,0,.014h0a.344.344,0,0,0,.082.135h0l.011.011a.342.342,0,0,0,.08.055l.018.009h.006l.027.01h0l.031.008h0l.03,0H5.256a2.623,2.623,0,0,0,5.2,0h5.527a2.623,2.623,0,0,0,5.2,0h1.575l.027,0H22.8l.021-.005.013,0,.017-.006.014-.006.015-.008.014-.008.014-.008.013-.008.014-.01.011-.009.014-.012.009-.009.014-.015.008-.008L23,83.632l0-.007.016-.026h0c.005-.01.01-.019.014-.03v-.009a.08.08,0,0,1,.008-.021c0-.007,0-.01,0-.014s0-.011,0-.017,0-.011,0-.016v-.014c.014-.117.284-2.28.405-3.681v0c.035-.4.057-.743.057-.952a4.484,4.484,0,0,0-4.47-4.472Zm-1.541.689h1.41l-.18,2.067H17.321ZM7.856,85.377A1.934,1.934,0,1,1,9.79,83.443,1.934,1.934,0,0,1,7.856,85.377Zm10.727,0a1.934,1.934,0,1,1,1.937-1.934A1.934,1.934,0,0,1,18.583,85.377Zm3.83-2.28h-1.23a2.623,2.623,0,0,0-5.2,0H10.456a2.623,2.623,0,0,0-5.2,0H4.1l.29-2.986H16.786l.027,0h.011l.021-.005.014,0,.017-.006.014-.006.015-.008.014-.008.014-.008.013-.009.014-.01.011-.01.013-.011.011-.011L17.007,80l.009-.011.011-.014.008-.011.01-.016.007-.012.008-.017.006-.014.006-.017.005-.015,0-.016a.028.028,0,0,1,0-.017c0-.006,0-.011,0-.017V79.8h0l.173-1.982h1.781a2.468,2.468,0,0,1,2.036,1.126,2.827,2.827,0,0,0,1.672,1.14c-.1,1.053-.261,2.413-.334,3.01Zm.394-3.707a2.255,2.255,0,0,1-1.208-.9,3.236,3.236,0,0,0-2.177-1.342L19.6,75.1a3.8,3.8,0,0,1,3.233,3.749c0,.13-.01.318-.027.543Z" transform="translate(0 -68.888)"/></g></g><g transform="translate(1.232 74.369)"><g transform="translate(0)"><path class="a" d="M28.86,188.527H27.178a.345.345,0,1,0,0,.689H28.86a.345.345,0,1,0,0-.689Z" transform="translate(-26.834 -188.527)"/></g></g></g></svg>