<svg xmlns="http://www.w3.org/2000/svg" width="24.345" height="18.529" viewBox="0 0 24.345 18.529"><defs><style>.a{fill:#002f34;stroke:#002f34;stroke-width:0.3px;}</style></defs><g transform="translate(0.15 -58.8)"><g transform="translate(0 58.95)"><path class="a" d="M0,61.99V74.139a3.046,3.046,0,0,0,3.04,3.04h9.819a3.046,3.046,0,0,0,3.04-3.04V72.171a.6.6,0,1,0-1.2,0v1.968a1.845,1.845,0,0,1-1.841,1.841H3.04A1.845,1.845,0,0,1,1.2,74.139V61.99A1.845,1.845,0,0,1,3.04,60.149h9.819A1.845,1.845,0,0,1,14.7,61.99v1.968a.6.6,0,1,0,1.2,0V61.99a3.046,3.046,0,0,0-3.04-3.04H3.04A3.043,3.043,0,0,0,0,61.99Z" transform="translate(0 -58.95)"/><path class="a" d="M215.067,158.187a.6.6,0,0,0,.852,0l4.107-4.107a.6.6,0,0,0,0-.847l-4.107-4.107a.6.6,0,0,0-.847.847l3.084,3.084H206.9a.6.6,0,1,0,0,1.2h11.249l-3.084,3.084A.591.591,0,0,0,215.067,158.187Z" transform="translate(-196.202 -144.545)"/></g></g></svg>