<svg xmlns="http://www.w3.org/2000/svg" width="21.565" height="24.52" viewBox="0 0 21.565 24.52"><defs><style>.a{fill:#002f34;}</style></defs><g transform="translate(-30.849)"><g transform="translate(30.849 0.989)"><g transform="translate(0)"><path class="a" d="M50.7,27.825l-8.093-8.1a2.147,2.147,0,0,0-3.3,2.72L39.3,22.5a14.989,14.989,0,0,1-4.108,7.682L31.478,33.9a2.148,2.148,0,0,0,0,3.037L33.5,38.962a2.143,2.143,0,0,0,3.035,0l.506-.506L40.583,42a2.147,2.147,0,0,0,3.035-3.037L42.1,37.443l.506-.506a2.148,2.148,0,0,0,0-3.037l-.344-.344a14.969,14.969,0,0,1,5.662-2.42l.057-.011a2.147,2.147,0,0,0,2.717-.262h0A2.151,2.151,0,0,0,50.7,27.825ZM35.525,37.949a.715.715,0,0,1-1.012,0L32.49,35.924a.716.716,0,0,1,0-1.012l3.541-3.544,3.035,3.037Zm7.081,2.025a.716.716,0,0,1-1.012,1.012l-3.541-3.544,1.012-1.012Zm-2.529-4.556c.215-.215.537-.545,1.045-.979l.472.473a.716.716,0,0,1,0,1.012l-.506.506Zm.03-1.994-3.1-3.1a16.4,16.4,0,0,0,3.483-6.639l6.246,6.252A16.375,16.375,0,0,0,40.107,33.424Zm9.58-3.574a.715.715,0,0,1-1.012,0l-8.093-8.1a.716.716,0,1,1,1.012-1.012l8.093,8.1A.717.717,0,0,1,49.687,29.85Z" transform="translate(-30.849 -19.098)"/></g></g><g transform="translate(34.281 15.412)"><path class="a" d="M105.69,324.99a.777.777,0,0,0-1.1,0l-1.1,1.1a.777.777,0,0,0,1.1,1.1l1.1-1.1A.777.777,0,0,0,105.69,324.99Z" transform="translate(-103.266 -324.762)"/></g><g transform="translate(45.149)"><path class="a" d="M331.971,0a.777.777,0,0,0-.777.777V2.33a.777.777,0,0,0,1.553,0V.777A.777.777,0,0,0,331.971,0Z" transform="translate(-331.194)"/></g><g transform="translate(49.308 5.716)"><path class="a" d="M423.5,119.966h-1.553a.777.777,0,1,0,0,1.553H423.5a.777.777,0,0,0,0-1.553Z" transform="translate(-421.169 -119.966)"/></g><g transform="translate(47.755 1.553)"><path class="a" d="M394.057,30.218a.777.777,0,0,0-1.1,0l-1.553,1.553a.777.777,0,0,0,1.1,1.1l1.553-1.553A.777.777,0,0,0,394.057,30.218Z" transform="translate(-391.178 -29.991)"/></g></g></svg>