<svg xmlns="http://www.w3.org/2000/svg" width="18.661" height="24" viewBox="0 0 18.661 24"><defs><style>.a{fill:#002f34;}</style></defs><g transform="translate(-54.637)"><g transform="translate(54.637 0)"><path class="a" d="M54.7,12.84A9.16,9.16,0,0,1,63.683,2.624V.162a.177.177,0,0,1,.283-.127l5.066,3.723a.156.156,0,0,1,0,.249L63.971,7.73a.176.176,0,0,1-.283-.127V5.145a6.633,6.633,0,0,0-6,4.065,6.551,6.551,0,0,0,.933,6.679,1.265,1.265,0,1,1-1.988,1.563A9.034,9.034,0,0,1,54.7,12.84ZM69.326,8.111a6.551,6.551,0,0,1,.933,6.679,6.625,6.625,0,0,1-6,4.065V16.4a.177.177,0,0,0-.283-.127L58.91,19.993a.156.156,0,0,0,0,.249l5.062,3.723a.176.176,0,0,0,.283-.127V21.376A9.16,9.16,0,0,0,73.239,11.16a8.987,8.987,0,0,0-1.93-4.612,1.263,1.263,0,1,0-1.984,1.563Z" transform="translate(-54.637 0)"/></g></g></svg>