<svg class="right_S__3T85O SvgIcon__1H1VO orange-500__1xnDQ" width="40" height="40" viewBox="0 0 34 30"
     focusable="false" aria-hidden="true" xmlns="http://www.w3.org/2000/svg" fill="none">
    <path fill-rule="evenodd" clip-rule="evenodd"
          d="M11 18.0001C11 19.657 9.65685 21.0001 8 21.0001C6.34315 21.0001 5 19.657 5 18.0001C5 16.3433 6.34315 15.0001 8 15.0001C9.65685 15.0001 11 16.3433 11 18.0001ZM9 18.0001C9 18.5524 8.55225 19.0001 8 19.0001C7.44775 19.0001 7 18.5524 7 18.0001C7 17.4479 7.44775 17.0001 8 17.0001C8.55225 17.0001 9 17.4479 9 18.0001Z"
          fill="currentColor"></path>
    <path fill-rule="evenodd" clip-rule="evenodd"
          d="M29 18.0001C29 19.657 27.6569 21.0001 26 21.0001C24.3431 21.0001 23 19.657 23 18.0001C23 16.3433 24.3431 15.0001 26 15.0001C27.6569 15.0001 29 16.3433 29 18.0001ZM27 18.0001C27 18.5524 26.5522 19.0001 26 19.0001C25.4478 19.0001 25 18.5524 25 18.0001C25 17.4479 25.4478 17.0001 26 17.0001C26.5522 17.0001 27 17.4479 27 18.0001Z"
          fill="currentColor"></path>
    <path d="M15 15.0001C14.4477 15.0001 14 15.4478 14 16.0001C14 16.5524 14.4477 17.0001 15 17.0001H19C19.5523 17.0001 20 16.5524 20 16.0001C20 15.4478 19.5523 15.0001 19 15.0001H15Z"
          fill="currentColor"></path>
    <path d="M15 19.0001C14.4477 19.0001 14 19.4478 14 20.0001C14 20.5524 14.4477 21.0001 15 21.0001H19C19.5523 21.0001 20 20.5524 20 20.0001C20 19.4478 19.5523 19.0001 19 19.0001H15Z"
          fill="currentColor"></path>
    <path fill-rule="evenodd" clip-rule="evenodd"
          d="M5.05317 3.78744L3.43778 10.249C1.44143 10.9051 0 12.7843 0 15.0001V23.0001C0 23.8886 0.386251 24.6869 1 25.2362V27.0001C1 28.657 2.34315 30.0001 4 30.0001H6C7.65685 30.0001 9 28.657 9 27.0001V26.0001H25V27.0001C25 28.657 26.3431 30.0001 28 30.0001H30C31.6569 30.0001 33 28.657 33 27.0001V25.2362C33.6138 24.6869 34 23.8886 34 23.0001V15.0001C34 12.7843 32.5586 10.9051 30.5622 10.249L28.9468 3.78744C28.3904 1.56161 26.3905 0.00012207 24.0961 0.00012207H9.90388C7.60954 0.00012207 5.60963 1.56161 5.05317 3.78744ZM24.0961 2.00012H9.90388C8.52728 2.00012 7.32733 2.93701 6.99345 4.27251L5.56155 10.0001H17.1C17.5633 7.71788 19.581 6.00012 22 6.00012C24.419 6.00012 26.4367 7.71788 26.9 10.0001H28.4384L27.0065 4.27252C26.6727 2.93701 25.4727 2.00012 24.0961 2.00012ZM2 15.0001C2 13.3433 3.34315 12.0001 5 12.0001H29C30.6569 12.0001 32 13.3433 32 15.0001V23.0001C32 23.5524 31.5523 24.0001 31 24.0001H3C2.44772 24.0001 2 23.5524 2 23.0001V15.0001ZM22 8.00012C23.3062 8.00012 24.4175 8.83493 24.8293 10.0001H19.1707C19.5825 8.83493 20.6938 8.00012 22 8.00012ZM27 26.0001V27.0001C27 27.5524 27.4477 28.0001 28 28.0001H30C30.5523 28.0001 31 27.5524 31 27.0001V26.0001H27ZM7 26.0001H3V27.0001C3 27.5524 3.44772 28.0001 4 28.0001H6C6.55228 28.0001 7 27.5524 7 27.0001V26.0001Z"
          fill="currentColor"></path>
</svg>