<svg class="SvgIcon__1H1VO" width="40" height="40" viewBox="0 0 40 40" focusable="false" aria-hidden="true"
     xmlns="http://www.w3.org/2000/svg" fill="none">
    <g fill="none" stroke="#000" stroke-width="2" stroke-linecap="round" stroke-linejoin="round">
        <path d="M4 38H36M32 16H33C34.104 16 35 16.897 35 18.006V28.502C35 29.329 35.666 30 36.5 30C37.328 30 38 29.335 38 28.497V10.992C38 10.444 37.632 9.755 37.164 9.442L35 8M8 4C8 2.895 8.897 2 10.005 2H29.995C31.102 2 32 2.89 32 4V38H8V4Z"></path>
        <path d="M26 6H14C12.8954 6 12 6.89543 12 8V14C12 15.1046 12.8954 16 14 16H26C27.1046 16 28 15.1046 28 14V8C28 6.89543 27.1046 6 26 6Z"></path>
    </g>
</svg>