<svg class="right_S__3T85O SvgIcon__1H1VO orange-500__1xnDQ" width="40" height="40" viewBox="0 0 31 35"
     focusable="false" aria-hidden="true" xmlns="http://www.w3.org/2000/svg" fill="none">
    <path stroke-width="1"
          d="M5 8.00012C5 7.44784 5.41973 7.00012 5.9375 7.00012H19.0625C19.5803 7.00012 20 7.44784 20 8.00012C20 8.55241 19.5803 9.00012 19.0625 9.00012H5.9375C5.41973 9.00012 5 8.55241 5 8.00012Z"
          fill="currentColor"></path>
    <path stroke-width="1"
          d="M5 15.0001C5 14.4478 5.44772 14.0001 6 14.0001H9C9.55228 14.0001 10 14.4478 10 15.0001C10 15.5524 9.55228 16.0001 9 16.0001H6C5.44772 16.0001 5 15.5524 5 15.0001Z"
          fill="currentColor"></path>
    <path stroke-width="1"
          d="M5 22.0001C5 21.4478 5.44772 21.0001 6 21.0001H7C7.55228 21.0001 8 21.4478 8 22.0001C8 22.5524 7.55228 23.0001 7 23.0001H6C5.44772 23.0001 5 22.5524 5 22.0001Z"
          fill="currentColor"></path>
    <path stroke-width="1"
          d="M23.0004 0.00012207H2.99957C1.34295 0.00012207 0 1.39493 0 3.11551V26.8847C0 28.6053 1.34295 30.0001 2.99957 30.0001H6.88978C7.46331 30.0001 7.92824 29.5352 7.92824 28.9617C7.92824 28.3881 7.46331 27.9232 6.88978 27.9232H2.99957C2.44736 27.9232 1.99971 27.4583 1.99971 26.8847V3.11551C1.99971 2.54198 2.44736 2.07705 2.99957 2.07705H23.0004C23.5526 2.07705 24.0003 2.54198 24.0003 3.11551V11.0001C24.0003 11.5523 24.4479 12 25.0001 12C25.5523 12 26 11.5523 26 11.0001V3.11551C26 1.39493 24.6571 0.00012207 23.0004 0.00012207Z"
          fill="currentColor"></path>
    <path stroke-width="1" fill-rule="evenodd" clip-rule="evenodd"
          d="M20.5 33.0001C25.1944 33.0001 29 29.1945 29 24.5001C29 19.8057 25.1944 16.0001 20.5 16.0001C15.8056 16.0001 12 19.8057 12 24.5001C12 29.1945 15.8056 33.0001 20.5 33.0001ZM20.5 35.0001C26.299 35.0001 31 30.2991 31 24.5001C31 18.7011 26.299 14.0001 20.5 14.0001C14.701 14.0001 10 18.7011 10 24.5001C10 30.2991 14.701 35.0001 20.5 35.0001Z"
          fill="currentColor"></path>
    <path stroke-width="1" fill-rule="evenodd" clip-rule="evenodd"
          d="M25.7071 21.293C26.0976 21.6835 26.0976 22.3167 25.7071 22.7072L19.7071 28.7072C19.3166 29.0978 18.6834 29.0978 18.2929 28.7072L15.2929 25.7072C14.9024 25.3167 14.9024 24.6835 15.2929 24.293C15.6834 23.9025 16.3166 23.9025 16.7071 24.293L19 26.5859L24.2929 21.293C24.6834 20.9025 25.3166 20.9025 25.7071 21.293Z"
          fill="currentColor"></path>
</svg>