<svg xmlns="http://www.w3.org/2000/svg" width="22.754" height="22.946" viewBox="0 0 22.754 22.946"><defs><style>.a{fill:#002f34;}</style></defs><g transform="translate(-2.564)"><g transform="translate(2.564)"><path class="a" d="M22.529,0H5.353A2.793,2.793,0,0,0,2.564,2.79V14.056a2.793,2.793,0,0,0,2.79,2.79h9.406v5.42a.681.681,0,0,0,1.2.446l5.081-5.866h1.493a2.793,2.793,0,0,0,2.789-2.79V2.79A2.793,2.793,0,0,0,22.529,0Zm1.428,14.056a1.43,1.43,0,0,1-1.428,1.428H20.757a.68.68,0,0,0-.547.235l-4.09,4.721V16.165a.681.681,0,0,0-.681-.681H5.353a1.43,1.43,0,0,1-1.428-1.428V2.79A1.43,1.43,0,0,1,5.353,1.361H22.529A1.43,1.43,0,0,1,23.957,2.79V14.056h0Z" transform="translate(-2.564)"/><path class="a" d="M100.483,119.751H85.239a.681.681,0,1,0,0,1.361h15.244a.681.681,0,1,0,0-1.361Z" transform="translate(-81.484 -115.261)"/><path class="a" d="M100.483,206.489H85.239a.681.681,0,0,0,0,1.361h15.244a.681.681,0,1,0,0-1.361Z" transform="translate(-81.484 -198.747)"/><path class="a" d="M92.454,293.225H85.239a.681.681,0,1,0,0,1.361h7.216a.681.681,0,1,0,0-1.361Z" transform="translate(-81.484 -282.231)"/></g></g></svg>