<?xml version="1.0" encoding="UTF-8"?>
<svg width="280px" height="280px" viewBox="0 0 280 280" version="1.1" xmlns="http://www.w3.org/2000/svg" xmlns:xlink="http://www.w3.org/1999/xlink">
    <title>illustration/avatar/?</title>
    <g id="illustration/avatar/?" stroke="none" stroke-width="1" fill="none" fill-rule="evenodd">
        <g id="Group" transform="translate(16.000000, 15.000000)">
            <path d="M248.962656,124.481328 C248.962656,193.23124 193.23124,248.962656 124.481328,248.962656 C55.7314155,248.962656 0,193.23124 0,124.481328 C0,55.7314155 55.7314155,0 124.481328,0 C193.23124,0 248.962656,55.7314155 248.962656,124.481328" id="Fill-1" fill="#F2F4F5"></path>
            <path d="M100.091632,62.9569896 C134.346473,50.0126484 172.681535,67.0983546 185.714039,101.116955 C195.383418,126.356829 188.408965,153.827292 170.174206,171.610449 L212.268326,213.414795 C189.885892,235.644584 158.962656,249.392474 124.806362,249.392474 C90.6500692,249.392474 59.7268326,235.644584 37.3443983,213.414795 L37.3443983,213.414795 L78.3478609,172.69473 C71.1789416,166.045266 65.3901153,157.708174 61.6666667,147.988897 C48.6324343,113.970296 65.8367911,75.8996137 100.091632,62.9569896 Z" id="Combined-Shape" fill-opacity="0.2" fill="#002F34"></path>
            <path d="M174.852697,56.2887394 C172.162517,56.2887394 169.557054,56.6304192 167.04668,57.2159107 C167.665629,54.6919445 168.0287,52.0683932 168.0287,49.3555587 C168.0287,31.0095865 153.054633,16.1387895 134.581259,16.1387895 C120.428423,16.1387895 108.357192,24.8816712 103.473029,37.2147661 C96.3222683,31.8903992 87.4391425,28.7345829 77.8160443,28.7345829 C54.1732365,28.7345829 35.0082988,47.7690657 35.0082988,71.2453856 C35.0082988,81.8735155 38.9450207,91.5830591 45.4353389,99.0347689 C38.511065,103.686078 33.958852,111.556732 33.958852,120.483331 C33.958852,134.773787 45.6237898,146.358277 60.0134855,146.358277 C74.4031812,146.358277 86.0681189,134.773787 86.0681189,120.483331 C86.0681189,117.935327 85.6825726,115.478323 84.9910097,113.15181 C102.618949,110.195164 116.574689,96.5468594 119.871715,79.1520962 C124.316736,81.3206467 129.295989,82.5723279 134.581259,82.5723279 C137.084716,82.5723279 139.517289,82.2770067 141.863416,81.7584776 C141.173582,84.4438403 140.76556,87.242524 140.76556,90.1407927 C140.76556,108.83703 156.026625,123.992846 174.852697,123.992846 C193.680498,123.992846 208.939834,108.83703 208.939834,90.1407927 C208.939834,71.4445557 193.680498,56.2887394 174.852697,56.2887394" id="Fill-14" fill="#FFFFFF"></path>
            <path d="M174.852697,56.2887394 C172.162517,56.2887394 169.557054,56.6304192 167.04668,57.2159107 C167.665629,54.6919445 168.0287,52.0683932 168.0287,49.3555587 C168.0287,31.0095865 153.054633,16.1387895 134.581259,16.1387895 C120.428423,16.1387895 108.357192,24.8816712 103.473029,37.2147661 C96.3222683,31.8903992 87.4391425,28.7345829 77.8160443,28.7345829 C54.1732365,28.7345829 35.0082988,47.7690657 35.0082988,71.2453856 C35.0082988,81.8735155 38.9450207,91.5830591 45.4353389,99.0347689 C38.511065,103.686078 33.958852,111.556732 33.958852,120.483331 C33.958852,134.773787 45.6237898,146.358277 60.0134855,146.358277 C74.4031812,146.358277 86.0681189,134.773787 86.0681189,120.483331 C86.0681189,117.935327 85.6825726,115.478323 84.9910097,113.15181 C102.618949,110.195164 116.574689,96.5468594 119.871715,79.1520962 C124.316736,81.3206467 129.295989,82.5723279 134.581259,82.5723279 C137.084716,82.5723279 139.517289,82.2770067 141.863416,81.7584776 C141.173582,84.4438403 140.76556,87.242524 140.76556,90.1407927 C140.76556,108.83703 156.026625,123.992846 174.852697,123.992846 C193.680498,123.992846 208.939834,108.83703 208.939834,90.1407927 C208.939834,71.4445557 193.680498,56.2887394 174.852697,56.2887394" id="Fill-14-Copy" fill-opacity="0.36" fill="#002F34"></path>
        </g>
    </g>
</svg>