<svg xmlns="http://www.w3.org/2000/svg" width="218.414" height="175" viewBox="0 0 218.414 175"><defs><style>.a{fill:#23e5db;}.b,.f{fill:#ffce32;}.c{fill:#d2b982;}.d{fill:#f8fbcf;}.e,.g{fill:#002f35;}.f,.g{fill-rule:evenodd;}</style></defs><g transform="translate(-849.633 -1027)"><g transform="translate(849.633 1027)"><rect class="a" width="35.259" height="7.964" transform="matrix(0.707, -0.707, 0.707, 0.707, 40.871, 169.369)"/><rect class="a" width="35.259" height="7.964" transform="matrix(0.707, -0.707, 0.707, 0.707, 0, 128.604)"/><path class="b" d="M1433.327,681V787.561l-5.49,5.49H1334.3c-2.154-2.141-3.349-3.349-5.49-5.49V662.074c2.141-2.141,3.336-3.349,5.49-5.49h74.61Z" transform="translate(-1286.31 -656.584)"/><path class="c" d="M1428.618,716.5V778.76l-5.49,5.49h-62.256Z" transform="translate(-1281.601 -648.022)"/><path class="d" d="M1423.068,681h-24.417V656.584Z" transform="translate(-1276.051 -656.584)"/><g transform="translate(66.38 42.883)"><rect class="e" width="62.072" height="6.881"/><rect class="e" width="62.072" height="6.881" transform="translate(0 12.725)"/><rect class="e" width="62.072" height="6.881" transform="translate(0 25.45)"/><rect class="e" width="62.072" height="6.881" transform="translate(0 38.174)"/><rect class="e" width="62.072" height="6.881" transform="translate(0 50.899)"/></g><rect class="a" width="54.141" height="7.964" transform="matrix(0.707, -0.707, 0.707, 0.707, 4.225, 92.836)"/><rect class="a" width="47.986" height="7.964" transform="matrix(0.707, -0.707, 0.707, 0.707, 80.434, 161.424)"/><rect class="a" width="73.705" height="7.964" transform="matrix(0.707, -0.707, 0.707, 0.707, 2.083, 168.066)"/></g><g transform="translate(1027.035 1148.305) rotate(-141)"><path class="f" d="M9.013,0a9.013,9.013,0,1,0,9.013,9.013A9.013,9.013,0,0,0,9.013,0Zm0,11.717a2.7,2.7,0,1,1,2.7-2.7A2.707,2.707,0,0,1,9.013,11.717Z" transform="translate(0 27.665)"/><path class="f" d="M4.407,1.911,2.5,0H0V2.5L1.911,4.407,0,6.317v2.5H2.5L4.407,6.9,6.318,8.813h2.5v-2.5L6.9,4.407,8.813,2.5V0h-2.5Z" transform="translate(13.918 0)"/><path class="f" d="M8,3.47,4.532,0H0V4.533L3.47,8,0,11.472V16H4.532L8,12.535,11.473,16H16V11.472L12.535,8,16,4.533V0H11.473Z" transform="matrix(0.848, 0.53, -0.53, 0.848, 32.251, 56.758)"/><path class="g" d="M3.2,0a3.2,3.2,0,1,0,3.2,3.2A3.2,3.2,0,0,0,3.2,0Zm0,4.156A.959.959,0,1,1,4.156,3.2.96.96,0,0,1,3.2,4.156Z" transform="translate(30.351 27.665)"/><path class="g" d="M3.2,0a3.2,3.2,0,1,0,3.2,3.2A3.2,3.2,0,0,0,3.2,0Zm0,4.156A.959.959,0,1,1,4.156,3.2.96.96,0,0,1,3.2,4.156Z" transform="translate(4.599 64.455)"/></g></g></svg>