<?xml version="1.0" encoding="utf-8"?>
<!-- Generator: Adobe Illustrator 22.0.1, SVG Export Plug-In . SVG Version: 6.00 Build 0)  -->
<svg version="1.1" id="Layer_1" xmlns="http://www.w3.org/2000/svg" xmlns:xlink="http://www.w3.org/1999/xlink" x="0px" y="0px"
	 viewBox="0 0 64 64" style="enable-background:new 0 0 64 64;" xml:space="preserve">
<style type="text/css">
	.st0{fill:#FFFFFF;}
</style>
<g>
	<path class="st0" d="M61.9,42.2H47.3V27.9c-0.1-1.1-1-2-2.1-2.1c0,0,0,0-0.1,0c-1.2,0-2.1,1-2.1,2.1v14.3H28.6
		c-1.1,0.1-2,1-2.1,2.1c0,0,0,0,0,0c0,1.2,1,2.1,2.1,2.1h14.5v14.3c0,0,0,0,0,0.1c0,1.1,1,2.1,2.1,2.1c1.2-0.1,2.1-1.2,2.1-2.4v-14
		h14.5c0,0,0,0,0,0c1.2,0,2.1-1,2.1-2.1c0,0,0,0,0,0C64,43.1,63,42.2,61.9,42.2z"/>
	<path class="st0" d="M21.7,52.5h-9.8c-0.1,0-0.2,0-0.2,0c-3.8,0-6.9-3.1-6.9-6.9V12.6c0,0,0,0,0-0.1c0-3.9,3.2-7.1,7.1-7.1h33.9
		c0,0,0,0,0.1,0c3.9,0,7.1,3.2,7.1,7.1v9c0,1.2,0.9,2.1,2.1,2.1c1.2,0,2.1-0.9,2.1-2.1v-9C57,6.2,51.8,1.1,45.5,1.2H11.6
		C5.3,1.1,0.1,6.2,0,12.6v33.1C0.1,52,5.3,57.1,11.6,57h9.8c1.3,0,2.4-1.1,2.4-2.4c0,0,0,0,0-0.1C23.8,53.4,22.8,52.5,21.7,52.5z"/>
</g>
</svg>
