<?xml version="1.0" encoding="UTF-8"?>
<svg width="250px" height="115px" viewBox="0 0 250 115" version="1.1" xmlns="http://www.w3.org/2000/svg" xmlns:xlink="http://www.w3.org/1999/xlink">
    <title>Group 36</title>
    <g id="Illustrations" stroke="none" stroke-width="1" fill="none" fill-rule="evenodd">
        <g id="illustration/light-mode/others/photos" transform="translate(-15.000000, -83.000000)">
            <g id="Group-36" transform="translate(15.000000, 83.000000)">
                <polygon id="Fill-1" fill="#F8DD3E" points="0 100.022549 76.2572606 100.022549 76.2572606 13.7115686 0 13.7115686"></polygon>
                <polygon id="Fill-2" fill="#F8FBCF" points="6.5200157 83.984902 69.7372449 83.984902 69.7372449 20.8172549 6.5200157 20.8172549"></polygon>
                <polygon id="Fill-3" fill="#002F34" points="15.005573 49.3172549 38.1286107 26.212549 61.2514521 49.3172549"></polygon>
                <path d="M18.5304079,47.8580392 L57.7266384,47.8580392 L38.1286063,28.2753781 L18.5304079,47.8580392 Z M13.9741609,48.2850245 L37.0971986,25.1803186 L39.1600271,25.1803186 L62.2828686,48.2850289 L61.2514521,50.7764706 L15.005573,50.7764706 L13.9741609,48.2850245 Z" id="Stroke-4" fill="#002F34" fill-rule="nonzero"></path>
                <polygon id="Fill-5" fill="#CFC980" points="15.0056907 78.5894118 61.2515699 78.5894118 61.2515699 50.6145098 15.0056907 50.6145098"></polygon>
                <g id="Group-35" transform="translate(19.607843, 0.008235)">
                    <path d="M14.8010658,62.8589216 C14.8010658,65.5791176 12.5942369,67.7842157 9.87190569,67.7842157 C7.14977068,67.7842157 4.94274556,65.5791176 4.94274556,62.8589216 C4.94274556,60.1387255 7.14977068,57.9336275 9.87190569,57.9336275 C12.5942369,57.9336275 14.8010658,60.1387255 14.8010658,62.8589216" id="Fill-6" fill="#F8FBCF"></path>
                    <path d="M31.2714544,62.8589216 C31.2714544,65.5791176 29.0646255,67.7842157 26.3422942,67.7842157 C23.619963,67.7842157 21.4131341,65.5791176 21.4131341,62.8589216 C21.4131341,60.1387255 23.619963,57.9336275 26.3422942,57.9336275 C29.0646255,57.9336275 31.2714544,60.1387255 31.2714544,62.8589216" id="Fill-8" fill="#F8FBCF"></path>
                    <polygon id="Fill-10" fill="#F8FBCF" points="4.94278481 78.5811765 14.8011051 78.5811765 14.8011051 62.8586275 4.94278481 62.8586275"></polygon>
                    <polygon id="Fill-12" fill="#002F34" points="0.340351525 46.5594118 5.765587 46.5594118 5.765587 32.9741176 0.340351525 32.9741176"></polygon>
                    <path d="M0.340351525,48.0186275 L-1.11886416,46.5594118 L-1.11886416,32.9741176 L0.340351525,31.514902 L5.765587,31.514902 L7.22480269,32.9741176 L7.22480269,46.5594118 L5.765587,48.0186275 L0.340351525,48.0186275 Z M1.79956721,45.1001961 L4.30637132,45.1001961 L4.30637132,34.4333333 L1.79956721,34.4333333 L1.79956721,45.1001961 Z" id="Stroke-13" fill="#002F34" fill-rule="nonzero"></path>
                    <polygon id="Fill-14" fill="#F8DD3E" points="170.540509 90.7060784 230.349771 90.7060784 230.349771 23.0113725 170.540509 23.0113725"></polygon>
                    <polygon id="Fill-15" fill="#F8FBCF" points="177.060524 75.8494118 223.618413 75.8494118 223.618413 29.3280392 177.060524 29.3280392"></polygon>
                    <polygon id="Fill-16" fill="#F8DD3E" points="63.5257911 113.529412 163.664331 113.529412 163.664331 0.187843137 63.5257911 0.187843137"></polygon>
                    <polygon id="Fill-17" fill="#F8FBCF" points="70.0456106 94.0154902 157.078185 94.0154902 157.078185 7.05117647 70.0456106 7.05117647"></polygon>
                    <polygon id="Fill-18" fill="#002F34" points="213.510289 45.84 217.290116 45.84 217.290116 42.0631373 213.510289 42.0631373"></polygon>
                    <polygon id="Stroke-19" stroke="#002F34" stroke-width="3.7136" points="213.510289 45.84 217.290116 45.84 217.290116 42.0631373 213.510289 42.0631373"></polygon>
                    <polygon id="Fill-20" fill="#CFC980" points="182.565234 68.5176471 218.325438 68.5176471 218.325438 48.3211765 182.565234 48.3211765"></polygon>
                    <path d="M182.565234,70.0420588 L181.040822,68.5176471 L181.040822,48.3211765 L182.565234,46.7967647 L218.325438,46.7967647 L219.84985,48.3211765 L219.84985,68.5176471 L218.325438,70.0420588 L182.565234,70.0420588 Z M216.801026,66.9932353 L216.801026,49.8455882 L184.089646,49.8455882 L184.089646,66.9932353 L216.801026,66.9932353 Z" id="Stroke-21" fill="#CFC980" fill-rule="nonzero"></path>
                    <path d="M200.445277,67.9818627 C195.168197,67.9818627 190.875026,63.6922549 190.875026,58.4191176 C190.875026,53.1465686 195.168197,48.8569608 200.445277,48.8569608 C205.722161,48.8569608 210.015332,53.1465686 210.015332,58.4191176 C210.015332,63.6922549 205.722161,67.9818627 200.445277,67.9818627" id="Fill-22" fill="#CFC980"></path>
                    <path d="M200.445277,46.7967647 C194.021219,46.7967647 188.813605,52.0004902 188.813605,58.4191176 C188.813605,64.8385294 194.021219,70.0420588 200.445277,70.0420588 C206.869139,70.0420588 212.076753,64.8385294 212.076753,58.4191176 C212.076753,52.0004902 206.869139,46.7967647 200.445277,46.7967647 M200.445277,50.9169608 C204.585387,50.9169608 207.953519,54.2826471 207.953519,58.4191176 C207.953519,62.5563725 204.585387,65.9218627 200.445277,65.9218627 C196.304971,65.9218627 192.936839,62.5563725 192.936839,58.4191176 C192.936839,54.2826471 196.304971,50.9169608 200.445277,50.9169608" id="Fill-23" fill="#F8FBCF"></path>
                    <polygon id="Stroke-24" fill="#F8FBCF" fill-rule="nonzero" points="212.763075 50.0583137 212.763075 48.3416471 218.312133 48.3416471 218.312133 50.0583137"></polygon>
                    <polygon id="Stroke-25" fill="#F8FBCF" fill-rule="nonzero" points="212.763075 52.7135098 212.763075 50.9968431 218.312133 50.9968431 218.312133 52.7135098"></polygon>
                    <path d="M186.99302,50.5333725 C186.99302,51.7551373 186.001851,52.7455294 184.779127,52.7455294 C183.556403,52.7455294 182.565234,51.7551373 182.565234,50.5333725 C182.565234,49.3116078 183.556403,48.3212157 184.779127,48.3212157 C186.001851,48.3212157 186.99302,49.3116078 186.99302,50.5333725" id="Fill-26" fill="#002F34"></path>
                    <path d="M89.7901749,45.7196667 C81.0128986,45.7196667 73.8973178,52.8294706 73.8973178,61.6000588 C73.8973178,70.370451 81.0128986,77.4802549 89.7901749,77.4802549 C98.5674512,77.4802549 105.683032,70.370451 105.683032,61.6000588 C105.683032,52.8294706 98.5674512,45.7196667 89.7901749,45.7196667 M89.7901749,55.5235882 C93.1433931,55.5235882 95.8714151,58.2494706 95.8714151,61.6000588 C95.8714151,64.950451 93.1433931,67.6763333 89.7901749,67.6763333 C86.4369567,67.6763333 83.7089347,64.950451 83.7089347,61.6000588 C83.7089347,58.2494706 86.4369567,55.5235882 89.7901749,55.5235882" id="Fill-27" fill="#002F34"></path>
                    <path d="M137.333405,45.7196667 C128.556129,45.7196667 121.440744,52.8294706 121.440744,61.6000588 C121.440744,70.370451 128.556129,77.4802549 137.333405,77.4802549 C146.110681,77.4802549 153.226262,70.370451 153.226262,61.6000588 C153.226262,52.8294706 146.110681,45.7196667 137.333405,45.7196667 M137.333405,55.5235882 C140.686623,55.5235882 143.414645,58.2494706 143.414645,61.6000588 C143.414645,64.950451 140.686623,67.6763333 137.333405,67.6763333 C133.980187,67.6763333 131.252361,64.950451 131.252361,61.6000588 C131.252361,58.2494706 133.980187,55.5235882 137.333405,55.5235882" id="Fill-28" fill="#002F34"></path>
                    <path d="M123.779088,39.9565062 L127.116379,39.9565062 L139.001975,60.5273025 L137.333326,63.4185882 L113.561937,63.4185882 L111.893295,60.5272906 L123.779088,39.9565062 Z M116.90117,59.5642745 L133.994121,59.5642745 L125.447716,44.7727364 L116.90117,59.5642745 Z" id="Stroke-29" fill="#CFC980" fill-rule="nonzero"></path>
                    <polygon id="Stroke-30" fill="#CFC980" fill-rule="nonzero" points="91.4577701 62.4573031 88.1225797 60.5254027 99.4756017 40.9257949 101.143197 39.9645882 125.980324 39.9645882 125.980324 43.818902 102.254016 43.818902"></polygon>
                    <polygon id="Stroke-31" fill="#CFC980" fill-rule="nonzero" points="116.921381 63.1925402 113.665602 65.2554598 96.4144244 38.0289892 99.6702033 35.9660696"></polygon>
                    <polygon id="Fill-32" fill="#F8FBCF" points="110.42218 67.0682353 119.146278 67.0682353 119.146278 63.4407843 110.42218 63.4407843"></polygon>
                    <path d="M94.5602102,37.4273137 C93.532149,35.9537843 93.8940014,33.9265294 95.3686875,32.8992745 C96.8433735,31.8720196 98.8722197,32.2337843 99.9002809,33.7071176 C100.928342,35.1806471 100.566293,37.207902 99.0918036,38.2351569 C97.6171176,39.2624118 95.5882715,38.9008431 94.5602102,37.4273137" id="Fill-33" fill="#002F34"></path>
                    <polygon id="Stroke-34" fill="#002F34" fill-rule="nonzero" points="119.511702 38.9246863 119.511702 35.0703725 131.383758 35.0703725 131.383758 38.9246863"></polygon>
                </g>
            </g>
        </g>
    </g>
</svg>