
<svg width="20px" height="20px" viewBox="0 0 20 20" version="1.1" xmlns="http://www.w3.org/2000/svg" xmlns:xlink="http://www.w3.org/1999/xlink">
    <g id="Foundation" stroke="none" stroke-width="1" fill="none" fill-rule="evenodd">
        <g id="Elements:-Icons" transform="translate(-433.000000, -246.000000)" fill="#002F34">
            <g id="element/icon/call/thick" transform="translate(433.000000, 246.000000)">
                <path d="M16.3875856,17.9782723 C8.62081943,17.6345435 2.36545651,11.3796824 2.02222947,3.61241438 L5.53679404,2.20638784 L7.68597737,6.5047545 L6.02152696,7.33672881 L6.02152696,7.95694608 C6.02152696,11.2773164 8.72318539,13.978473 12.0430539,13.978473 L12.6632712,13.978473 L12.9407632,13.4239908 L12.9407632,13.4239908 L13.4957473,12.3145244 L17.7936122,14.463206 L16.3875856,17.9782723 Z M19.5172743,13.0807637 L13.4957473,10.0700003 L12.1489324,10.5191058 L11.4449156,11.9266377 C9.70921043,11.6667085 8.33379331,10.2907896 8.07336227,8.55508443 L9.48139599,7.85106757 L9.92999975,6.5047545 L6.91923627,0.483227538 L5.64919588,0 L0.631256743,2.00717565 L0,2.93900695 C0,12.3466392 7.65386256,20 17.0609931,20 L17.9928243,19.3692451 L20,14.3513059 L19.5172743,13.0807637 Z" id="Fill-1"></path>
            </g>
        </g>
    </g>
</svg>