
<svg width="22px" height="20px" viewBox="0 0 22 20" version="1.1" xmlns="http://www.w3.org/2000/svg" xmlns:xlink="http://www.w3.org/1999/xlink">
    <g id="Foundation" stroke="none" stroke-width="1" fill="none" fill-rule="evenodd">
        <g id="Elements:-Icons" transform="translate(-613.000000, -340.000000)" fill="#002F34">
            <g id="element/icon/like/thick-" transform="translate(613.000000, 340.000000)">
                <path d="M19.219,8.367 L11,18.4195 L2.806,8.3985 C2.2785,7.698 2,6.8685 2,6 C2,3.794 3.7945,2 6,2 C7.8595,2 9.4225,3.2775 9.8685,5 L12.1315,5 C12.5775,3.2775 14.14,2 16,2 C18.2055,2 20,3.794 20,6 C20,6.8685 19.7215,7.698 19.219,8.367 M16,0 C13.9155,0 12.076,1.068 11,2.6865 C9.924,1.068 8.0845,0 6,0 C2.6915,0 0,2.691 0,6 C0,7.306 0.4175,8.551 1.2325,9.6325 L9.7085,20 L12.2915,20 L20.792,9.601 C21.5825,8.551 22,7.306 22,6 C22,2.691 19.3085,0 16,0" id="Fill-1"></path>
            </g>
        </g>
    </g>
</svg>